<svg width="171" height="40" viewBox="0 0 171 40" fill="none" xmlns="http://www.w3.org/2000/svg">
<path d="M49.5319 14.464V21.6C49.5319 23.28 49.5639 23.488 50.5879 23.6L51.0199 23.648C51.1159 23.728 51.0839 24 50.9879 24.048C50.0759 24.016 49.5479 24 48.9079 24C48.2359 24 47.6599 24.016 46.9559 24.048C46.8599 24 46.8279 23.744 46.9239 23.648L47.2599 23.6C48.1879 23.472 48.2199 23.28 48.2199 21.6V15.696C48.2199 14.336 48.1879 14.064 47.4679 13.984L46.8919 13.92C46.7799 13.824 46.7959 13.584 46.9239 13.52C47.7719 13.408 48.7639 13.392 50.0919 13.392C51.4199 13.392 52.4119 13.568 53.1639 14.032C53.8999 14.496 54.4439 15.328 54.4439 16.432C54.4439 17.904 53.5319 18.64 52.8439 18.976C52.1399 19.312 51.2919 19.456 50.6359 19.456C50.5239 19.408 50.5239 19.168 50.6199 19.136C52.3479 18.816 52.9719 17.84 52.9719 16.448C52.9719 14.896 52.0599 13.888 50.3959 13.888C49.5479 13.888 49.5319 13.952 49.5319 14.464ZM59.1338 19.904H56.1738C55.7578 19.904 55.7418 19.936 55.7418 20.336C55.7418 21.952 56.6858 23.328 58.3978 23.328C58.9258 23.328 59.3738 23.168 59.8698 22.544C60.0298 22.496 60.1418 22.592 60.1578 22.736C59.6298 23.824 58.4778 24.224 57.6458 24.224C56.6058 24.224 55.7898 23.776 55.3258 23.168C54.8458 22.544 54.6538 21.792 54.6538 21.088C54.6538 19.12 55.9498 17.472 57.8698 17.472C59.2458 17.472 60.1418 18.416 60.1418 19.376C60.1418 19.6 60.1098 19.728 60.0778 19.792C60.0298 19.888 59.8058 19.904 59.1338 19.904ZM56.0298 19.424H57.1658C58.3498 19.424 58.7018 19.36 58.8298 19.264C58.8778 19.232 58.9258 19.168 58.9258 18.96C58.9258 18.512 58.6218 17.952 57.6938 17.952C56.7498 17.952 55.9338 18.816 55.9178 19.344C55.9178 19.376 55.9178 19.424 56.0298 19.424ZM62.0055 22.208V19.408C62.0055 18.784 62.0055 18.704 61.5735 18.416L61.4295 18.32C61.3655 18.256 61.3655 18.08 61.4455 18.032C61.8135 17.904 62.6615 17.488 63.0615 17.248C63.1415 17.264 63.1895 17.296 63.1895 17.36V18.288C63.1895 18.368 63.2055 18.416 63.2375 18.432C63.7975 17.968 64.4055 17.472 64.9975 17.472C65.3975 17.472 65.7175 17.728 65.7175 18.112C65.7175 18.64 65.2855 18.848 65.0295 18.848C64.8695 18.848 64.7895 18.8 64.6775 18.736C64.4375 18.576 64.1975 18.48 63.9735 18.48C63.7175 18.48 63.5255 18.624 63.3975 18.8C63.2375 19.024 63.1895 19.488 63.1895 20.032V22.208C63.1895 23.36 63.2215 23.552 63.8295 23.6L64.4055 23.648C64.5175 23.728 64.4855 24 64.3735 24.048C63.6215 24.016 63.1575 24 62.5975 24C62.0215 24 61.5415 24.016 61.1255 24.048C61.0135 24 60.9815 23.728 61.0935 23.648L61.3975 23.6C61.9895 23.504 62.0055 23.36 62.0055 22.208ZM70.563 18.368H68.851C68.579 18.368 68.579 18.4 68.579 18.832V22.208C68.579 23.36 68.611 23.552 69.187 23.6L69.763 23.648C69.875 23.728 69.843 24 69.731 24.048C69.011 24.016 68.547 24 67.987 24C67.411 24 66.931 24.016 66.451 24.048C66.339 24 66.307 23.728 66.419 23.648L66.787 23.6C67.379 23.52 67.395 23.36 67.395 22.208V18.832C67.395 18.4 67.395 18.368 67.075 18.368H66.515C66.419 18.304 66.403 18.16 66.467 18.064L67.155 17.728C67.283 17.664 67.395 17.568 67.395 17.408C67.395 16.48 67.507 15.488 67.891 14.592C68.291 13.68 69.187 12.56 70.771 12.56C71.619 12.56 72.339 12.944 72.339 13.52C72.339 13.84 72.035 14.096 71.731 14.096C71.555 14.096 71.459 14.032 71.347 13.904C71.043 13.552 70.595 13.2 70.067 13.2C69.571 13.2 69.171 13.504 68.931 14.08C68.643 14.816 68.579 15.984 68.579 16.784V17.248C68.579 17.68 68.579 17.696 68.851 17.696H70.675C70.851 17.856 70.739 18.304 70.563 18.368ZM74.4836 17.472C76.2756 17.472 77.7316 18.816 77.7316 20.784C77.7316 22.784 76.3556 24.224 74.3556 24.224C72.5156 24.224 71.0756 22.928 71.0756 20.928C71.0756 18.912 72.5956 17.472 74.4836 17.472ZM76.3556 21.04C76.3556 19.68 75.8116 17.952 74.2916 17.952C73.2356 17.952 72.4516 18.96 72.4516 20.72C72.4516 22.176 73.1076 23.744 74.5156 23.744C75.9236 23.744 76.3556 22.272 76.3556 21.04ZM79.8649 22.208V19.408C79.8649 18.784 79.8649 18.704 79.4329 18.416L79.2889 18.32C79.2249 18.256 79.2249 18.08 79.3049 18.032C79.6729 17.904 80.5209 17.488 80.9209 17.248C81.0009 17.264 81.0489 17.296 81.0489 17.36V18.288C81.0489 18.368 81.0649 18.416 81.0969 18.432C81.6569 17.968 82.2649 17.472 82.8569 17.472C83.2569 17.472 83.5769 17.728 83.5769 18.112C83.5769 18.64 83.1449 18.848 82.8889 18.848C82.7289 18.848 82.6489 18.8 82.5369 18.736C82.2969 18.576 82.0569 18.48 81.8329 18.48C81.5769 18.48 81.3849 18.624 81.2569 18.8C81.0969 19.024 81.0489 19.488 81.0489 20.032V22.208C81.0489 23.36 81.0809 23.552 81.6889 23.6L82.2649 23.648C82.3769 23.728 82.3449 24 82.2329 24.048C81.4809 24.016 81.0169 24 80.4569 24C79.8809 24 79.4009 24.016 78.9849 24.048C78.8729 24 78.8409 23.728 78.9529 23.648L79.2569 23.6C79.8489 23.504 79.8649 23.36 79.8649 22.208ZM93.6574 22.208V19.888C93.6574 18.8 93.1774 18.24 92.1694 18.24C91.5614 18.24 91.0654 18.512 90.8414 18.8C90.6494 19.04 90.6014 19.2 90.6014 19.76V22.208C90.6014 23.36 90.6334 23.52 91.2094 23.6L91.5454 23.648C91.6574 23.728 91.6254 24 91.5134 24.048C91.0334 24.016 90.5694 24 90.0094 24C89.4334 24 89.0014 24.016 88.5534 24.048C88.4414 24 88.4094 23.728 88.5214 23.648L88.8094 23.6C89.4014 23.504 89.4174 23.36 89.4174 22.208V19.888C89.4174 18.816 88.9374 18.24 87.9454 18.24C87.2894 18.24 86.8414 18.528 86.6014 18.816C86.4414 19.008 86.3614 19.216 86.3614 19.728V22.208C86.3614 23.36 86.3934 23.504 86.9694 23.6L87.2574 23.648C87.3694 23.728 87.3374 24 87.2254 24.048C86.7934 24.016 86.3294 24 85.7694 24C85.1934 24 84.7134 24.016 84.2174 24.048C84.1054 24 84.0734 23.728 84.1854 23.648L84.5694 23.6C85.1614 23.52 85.1774 23.36 85.1774 22.208V19.408C85.1774 18.784 85.1774 18.704 84.7454 18.416L84.6014 18.32C84.5374 18.256 84.5374 18.08 84.6174 18.032C84.9854 17.904 85.8974 17.488 86.2174 17.248C86.2814 17.248 86.3614 17.28 86.3934 17.36C86.3614 17.728 86.3614 17.968 86.3614 18.112C86.3614 18.208 86.4254 18.288 86.5374 18.288C87.1454 17.856 87.8974 17.472 88.6654 17.472C89.4654 17.472 89.9134 17.76 90.3614 18.416C90.5054 18.448 90.6174 18.384 90.7614 18.288C91.4014 17.84 92.1854 17.472 92.9374 17.472C94.2174 17.472 94.8414 18.352 94.8414 19.456V22.208C94.8414 23.36 94.8734 23.52 95.4494 23.6L95.8334 23.648C95.9454 23.728 95.9134 24 95.8014 24.048C95.2734 24.016 94.8094 24 94.2494 24C93.6734 24 93.2414 24.016 92.7934 24.048C92.6814 24 92.6494 23.728 92.7614 23.648L93.0494 23.6C93.6414 23.504 93.6574 23.36 93.6574 22.208ZM98.0911 21.376L99.9951 20.688C100.235 20.608 100.267 20.464 100.267 20.224L100.283 19.488C100.299 18.896 100.107 18.096 99.1151 18.096C98.6671 18.096 98.1231 18.32 98.0911 18.816C98.0751 19.072 98.0591 19.264 97.9311 19.36C97.6911 19.552 97.2591 19.664 97.0191 19.664C96.8751 19.664 96.7951 19.584 96.7951 19.44C96.7951 18.608 98.6031 17.472 99.7711 17.472C100.923 17.472 101.483 18.144 101.435 19.344L101.339 22.128C101.307 22.864 101.451 23.52 102.075 23.52C102.235 23.52 102.379 23.472 102.475 23.424C102.555 23.376 102.635 23.312 102.683 23.312C102.747 23.312 102.795 23.408 102.795 23.52C102.795 23.6 102.235 24.224 101.451 24.224C101.067 24.224 100.683 24.08 100.411 23.728C100.347 23.632 100.251 23.504 100.155 23.504C100.043 23.504 99.8511 23.648 99.5311 23.824C99.1791 24.016 98.8271 24.224 98.3791 24.224C97.9151 24.224 97.5311 24.096 97.2591 23.856C96.9551 23.584 96.7631 23.184 96.7631 22.736C96.7631 22.112 97.0671 21.744 98.0911 21.376ZM97.9951 22.544C97.9951 22.816 98.1871 23.504 99.0031 23.504C99.3231 23.504 99.8191 23.264 99.9791 23.104C100.171 22.912 100.171 22.688 100.187 22.352L100.219 21.408C100.219 21.232 100.155 21.2 100.059 21.2C99.9631 21.2 99.6911 21.264 99.4031 21.36C98.4591 21.68 97.9951 21.92 97.9951 22.544ZM104.24 22.208V19.408C104.24 18.784 104.24 18.704 103.808 18.416L103.664 18.32C103.6 18.256 103.6 18.08 103.68 18.032C104.048 17.904 104.96 17.488 105.28 17.248C105.344 17.248 105.424 17.28 105.456 17.36C105.424 17.728 105.424 17.968 105.424 18.112C105.424 18.208 105.488 18.288 105.6 18.288C106.272 17.872 107.024 17.472 107.84 17.472C109.168 17.472 109.712 18.384 109.712 19.456V22.208C109.712 23.36 109.744 23.52 110.32 23.6L110.672 23.648C110.784 23.728 110.752 24 110.64 24.048C110.16 24.016 109.696 24 109.136 24C108.56 24 108.08 24.016 107.648 24.048C107.536 24 107.504 23.728 107.616 23.648L107.92 23.6C108.512 23.504 108.528 23.36 108.528 22.208V19.824C108.528 18.912 108.112 18.24 107.024 18.24C106.416 18.24 105.888 18.496 105.664 18.8C105.456 19.072 105.424 19.296 105.424 19.76V22.208C105.424 23.36 105.456 23.504 106.032 23.6L106.32 23.648C106.432 23.728 106.4 24 106.288 24.048C105.856 24.016 105.392 24 104.832 24C104.256 24 103.776 24.016 103.328 24.048C103.216 24 103.184 23.728 103.296 23.648L103.632 23.6C104.224 23.52 104.24 23.36 104.24 22.208ZM115.526 17.472C115.894 17.472 116.518 17.552 116.95 17.744C117.078 17.856 117.19 18.112 117.19 18.384C117.19 18.672 117.03 18.976 116.838 18.976C116.758 18.976 116.678 18.944 116.614 18.864C116.262 18.432 115.67 18.016 115.014 18.016C113.894 18.016 112.806 18.896 112.806 20.592C112.806 21.84 113.67 23.328 115.382 23.328C116.31 23.328 116.79 22.912 117.158 22.368C117.286 22.336 117.43 22.448 117.446 22.592C116.902 23.776 115.702 24.224 114.774 24.224C113.926 24.224 113.142 23.952 112.582 23.408C112.022 22.864 111.654 22.08 111.654 21.04C111.654 19.312 112.87 17.472 115.526 17.472ZM122.524 19.904H119.564C119.148 19.904 119.132 19.936 119.132 20.336C119.132 21.952 120.076 23.328 121.788 23.328C122.316 23.328 122.764 23.168 123.26 22.544C123.42 22.496 123.532 22.592 123.548 22.736C123.02 23.824 121.868 24.224 121.036 24.224C119.996 24.224 119.18 23.776 118.716 23.168C118.236 22.544 118.044 21.792 118.044 21.088C118.044 19.12 119.34 17.472 121.26 17.472C122.636 17.472 123.532 18.416 123.532 19.376C123.532 19.6 123.5 19.728 123.468 19.792C123.42 19.888 123.196 19.904 122.524 19.904ZM119.42 19.424H120.556C121.74 19.424 122.092 19.36 122.22 19.264C122.268 19.232 122.316 19.168 122.316 18.96C122.316 18.512 122.012 17.952 121.084 17.952C120.14 17.952 119.324 18.816 119.308 19.344C119.308 19.376 119.308 19.424 119.42 19.424Z" fill="white"/>
<rect x="0.5" y="0.5" width="170" height="39" stroke="#878787"/>
</svg>
