<svg width="171" height="40" viewBox="0 0 171 40" fill="none" xmlns="http://www.w3.org/2000/svg">
<path d="M44.5011 21.6V15.52C44.5011 14.336 44.4371 14.032 43.7171 13.968L43.2051 13.92C43.0771 13.824 43.0931 13.584 43.2211 13.52C44.0851 13.44 45.1731 13.392 46.6611 13.392C47.6691 13.392 48.6291 13.472 49.3491 13.84C50.0371 14.176 50.5651 14.816 50.5651 15.84C50.5651 16.992 49.8931 17.584 48.9331 18.032C48.9331 18.192 49.0611 18.24 49.2371 18.272C50.1011 18.432 51.3811 19.232 51.3811 20.944C51.3811 22.8 50.0051 24.048 47.1251 24.048C46.6611 24.048 45.8771 24 45.2051 24C44.5011 24 43.9571 24.032 43.3651 24.048C43.2691 24 43.2371 23.744 43.3331 23.648L43.6211 23.6C44.4691 23.456 44.5011 23.28 44.5011 21.6ZM45.8131 18.992V21.36C45.8131 21.936 45.8451 22.752 46.1491 23.104C46.4531 23.472 46.9331 23.552 47.4131 23.552C48.8371 23.552 49.9251 22.912 49.9251 21.312C49.9251 20.048 49.2851 18.576 46.7411 18.576C45.8771 18.576 45.8131 18.672 45.8131 18.992ZM45.8131 14.4V17.648C45.8131 18.096 45.8291 18.128 46.6451 18.096C48.2771 18.032 49.1571 17.552 49.1571 16.048C49.1571 14.48 47.9891 13.888 46.7731 13.888C46.4211 13.888 46.1811 13.92 46.0371 13.984C45.8771 14.032 45.8131 14.112 45.8131 14.4ZM53.8411 21.376L55.7451 20.688C55.9851 20.608 56.0171 20.464 56.0171 20.224L56.0331 19.488C56.0491 18.896 55.8571 18.096 54.8651 18.096C54.4171 18.096 53.8731 18.32 53.8411 18.816C53.8251 19.072 53.8091 19.264 53.6811 19.36C53.4411 19.552 53.0091 19.664 52.7691 19.664C52.6251 19.664 52.5451 19.584 52.5451 19.44C52.5451 18.608 54.3531 17.472 55.5211 17.472C56.6731 17.472 57.2331 18.144 57.1851 19.344L57.0891 22.128C57.0571 22.864 57.2011 23.52 57.8251 23.52C57.9851 23.52 58.1291 23.472 58.2251 23.424C58.3051 23.376 58.3851 23.312 58.4331 23.312C58.4971 23.312 58.5451 23.408 58.5451 23.52C58.5451 23.6 57.9851 24.224 57.2011 24.224C56.8171 24.224 56.4331 24.08 56.1611 23.728C56.0971 23.632 56.0011 23.504 55.9051 23.504C55.7931 23.504 55.6011 23.648 55.2811 23.824C54.9291 24.016 54.5771 24.224 54.1291 24.224C53.6651 24.224 53.2811 24.096 53.0091 23.856C52.7051 23.584 52.5131 23.184 52.5131 22.736C52.5131 22.112 52.8171 21.744 53.8411 21.376ZM53.7451 22.544C53.7451 22.816 53.9371 23.504 54.7531 23.504C55.0731 23.504 55.5691 23.264 55.7291 23.104C55.9211 22.912 55.9211 22.688 55.9371 22.352L55.9691 21.408C55.9691 21.232 55.9051 21.2 55.8091 21.2C55.7131 21.2 55.4411 21.264 55.1531 21.36C54.2091 21.68 53.7451 21.92 53.7451 22.544ZM64.2619 18.048H65.5579C65.7339 18.128 65.7019 18.672 65.4619 18.704H64.3099C64.3419 18.976 64.3419 19.248 64.3419 19.52C64.3419 20.624 63.6859 22.064 61.6539 22.064C61.3659 22.064 61.1419 22.032 60.9499 22.016C60.7579 22.128 60.2459 22.432 60.2459 22.896C60.2459 23.264 60.6139 23.568 61.3659 23.568C61.9099 23.568 62.5659 23.52 63.2699 23.52C64.1659 23.52 65.5099 23.68 65.5099 25.28C65.5099 27.024 63.6059 28.304 61.5259 28.304C59.5579 28.304 58.8699 27.248 58.8699 26.448C58.8699 26.192 58.9339 25.984 59.0459 25.856C59.3179 25.568 59.7659 25.152 60.1339 24.784C60.2779 24.64 60.4059 24.496 60.2619 24.4C59.6379 24.24 59.0939 23.696 59.0939 23.136C59.0939 23.056 59.1579 22.992 59.3339 22.864C59.6059 22.688 59.9099 22.416 60.1819 22.128C60.2619 22.032 60.3419 21.904 60.3419 21.824C59.7979 21.536 59.1419 20.912 59.1419 19.888C59.1419 18.512 60.3259 17.472 61.7499 17.472C62.3579 17.472 62.9179 17.632 63.2859 17.792C63.7979 18.016 63.9099 18.048 64.2619 18.048ZM62.7579 24.512H62.2139C61.7019 24.512 61.0619 24.544 60.8379 24.688C60.4539 24.928 60.0699 25.424 60.0699 26.032C60.0699 26.896 60.7579 27.616 62.2139 27.616C63.6379 27.616 64.5819 26.816 64.5819 25.904C64.5819 24.928 63.9099 24.512 62.7579 24.512ZM61.8939 21.6C62.7579 21.6 63.2059 20.912 63.2059 19.936C63.2059 18.848 62.7579 17.936 61.7819 17.936C61.0139 17.936 60.4379 18.64 60.4379 19.728C60.4379 20.864 61.1259 21.6 61.8939 21.6ZM68.5385 17.472C69.2105 17.472 69.8025 17.632 69.9465 17.76C70.0905 18.112 70.2025 18.624 70.2025 19.056C70.1385 19.168 69.8985 19.2 69.8185 19.104C69.5465 18.4 69.0665 17.936 68.4105 17.936C67.7865 17.936 67.3865 18.336 67.3865 18.912C67.3865 19.568 68.0585 19.92 68.6185 20.24C69.4665 20.72 70.2505 21.264 70.2505 22.4C70.2505 23.616 69.1305 24.224 67.9465 24.224C67.1945 24.224 66.6345 24.064 66.2345 23.744C66.1065 23.44 66.0105 22.656 66.0425 22.128C66.1225 22.032 66.3305 22.016 66.4105 22.112C66.6825 22.992 67.1945 23.76 68.1065 23.76C68.6825 23.76 69.1785 23.424 69.1785 22.736C69.1785 22 68.5385 21.6 67.9465 21.264C67.0185 20.736 66.3625 20.176 66.3625 19.296C66.3625 18.128 67.3225 17.472 68.5385 17.472ZM71.7418 12.8C72.3978 12.8 72.9738 13.504 72.9738 14.336C72.9738 15.44 72.1098 16.208 71.1018 16.512C70.9738 16.448 70.9098 16.288 70.9898 16.176C71.5818 15.904 72.2057 15.456 72.2057 14.8C72.2057 14.192 71.7098 13.92 71.4058 13.904C71.1818 13.888 70.9738 13.76 70.9738 13.456C70.9738 13.216 71.1178 12.8 71.7418 12.8ZM80.4034 18.976V21.648C80.4034 22.752 80.6754 23.488 81.8914 23.488C82.3234 23.488 82.8354 23.312 83.1874 23.008C83.3954 22.816 83.5074 22.576 83.5074 22.08V19.456C83.5074 18.416 83.3954 18.384 82.9154 18.192L82.7074 18.112C82.5954 18.048 82.5954 17.824 82.7234 17.76C83.3634 17.744 84.2434 17.632 84.5954 17.472C84.6754 17.488 84.7234 17.52 84.7394 17.584C84.7074 17.888 84.6914 18.384 84.6914 18.976V21.664C84.6914 22.928 84.7394 23.408 85.1874 23.408C85.3794 23.408 85.5874 23.376 85.8114 23.328C85.9074 23.408 85.9234 23.728 85.7954 23.792C85.1714 23.92 84.2434 24.08 83.6994 24.384C83.6194 24.384 83.5394 24.336 83.5074 24.272V23.616C83.5074 23.472 83.4594 23.392 83.3634 23.392C82.8834 23.696 82.0994 24.224 81.1554 24.224C79.7474 24.224 79.2194 23.52 79.2194 22.224V19.552C79.2194 18.544 79.2194 18.4 78.7394 18.192L78.5474 18.112C78.4514 18.032 78.4674 17.808 78.5794 17.76C79.3154 17.744 79.9394 17.6 80.2914 17.472C80.3874 17.488 80.4354 17.52 80.4514 17.584C80.4194 17.856 80.4034 18.192 80.4034 18.976ZM87.6149 22.208V19.408C87.6149 18.784 87.6149 18.704 87.1829 18.416L87.0389 18.32C86.9749 18.256 86.9749 18.08 87.0549 18.032C87.4229 17.904 88.3349 17.488 88.6549 17.248C88.7189 17.248 88.7989 17.28 88.8309 17.36C88.7989 17.728 88.7989 17.968 88.7989 18.112C88.7989 18.208 88.8629 18.288 88.9749 18.288C89.6469 17.872 90.3989 17.472 91.2149 17.472C92.5429 17.472 93.0869 18.384 93.0869 19.456V22.208C93.0869 23.36 93.1189 23.52 93.6949 23.6L94.0469 23.648C94.1589 23.728 94.1269 24 94.0149 24.048C93.5349 24.016 93.0709 24 92.5109 24C91.9349 24 91.4549 24.016 91.0229 24.048C90.9109 24 90.8789 23.728 90.9909 23.648L91.2949 23.6C91.8869 23.504 91.9029 23.36 91.9029 22.208V19.824C91.9029 18.912 91.4869 18.24 90.3989 18.24C89.7909 18.24 89.2629 18.496 89.0389 18.8C88.8309 19.072 88.7989 19.296 88.7989 19.76V22.208C88.7989 23.36 88.8309 23.504 89.4069 23.6L89.6949 23.648C89.8069 23.728 89.7749 24 89.6629 24.048C89.2309 24.016 88.7669 24 88.2069 24C87.6309 24 87.1509 24.016 86.7029 24.048C86.5909 24 86.5589 23.728 86.6709 23.648L87.0069 23.6C87.5989 23.52 87.6149 23.36 87.6149 22.208ZM96.0211 22.208V19.408C96.0211 18.784 96.0211 18.704 95.5891 18.416L95.4451 18.32C95.3811 18.256 95.3811 18.08 95.4611 18.032C95.8291 17.904 96.7411 17.488 97.1091 17.248C97.1891 17.248 97.2531 17.28 97.2691 17.344C97.2371 17.904 97.2051 18.672 97.2051 19.328V22.208C97.2051 23.36 97.2371 23.52 97.8131 23.6L98.1491 23.648C98.2611 23.728 98.2291 24 98.1171 24.048C97.6371 24.016 97.1731 24 96.6131 24C96.0371 24 95.5571 24.016 95.1091 24.048C94.9971 24 94.9651 23.728 95.0771 23.648L95.4131 23.6C96.0051 23.52 96.0211 23.36 96.0211 22.208ZM96.5491 14.016C97.0291 14.016 97.3491 14.4 97.3491 14.848C97.3491 15.424 96.9491 15.68 96.5011 15.68C96.0051 15.68 95.6851 15.312 95.6851 14.88C95.6851 14.352 96.0691 14.016 96.5491 14.016ZM101.219 22.528L99.8745 19.28C99.6345 18.688 99.4905 18.176 98.9145 18.096L98.5945 18.048C98.4985 17.92 98.5145 17.696 98.6425 17.648C99.0425 17.68 99.6025 17.696 100.147 17.696C100.579 17.696 100.899 17.68 101.443 17.648C101.555 17.712 101.571 17.968 101.459 18.048L101.267 18.08C100.771 18.16 100.755 18.24 100.914 18.72C101.283 19.824 101.747 20.944 102.115 21.776C102.259 22.096 102.323 22.24 102.371 22.288C102.435 22.24 102.547 22.016 102.674 21.68C102.883 21.136 103.427 19.744 103.587 19.328C103.811 18.768 103.875 18.432 103.875 18.336C103.875 18.192 103.779 18.128 103.587 18.096L103.219 18.048C103.123 17.936 103.139 17.712 103.251 17.648C103.747 17.68 104.147 17.696 104.451 17.696C104.851 17.696 105.123 17.68 105.571 17.648C105.683 17.712 105.699 17.952 105.603 18.048L105.363 18.08C104.803 18.16 104.659 18.576 104.195 19.472C103.971 19.904 102.979 22.224 102.723 22.88C102.562 23.28 102.403 23.648 102.195 24.192C102.163 24.24 102.099 24.256 102.035 24.256C101.955 24.256 101.875 24.24 101.827 24.192C101.699 23.744 101.459 23.12 101.219 22.528ZM110.415 19.904H107.455C107.039 19.904 107.023 19.936 107.023 20.336C107.023 21.952 107.967 23.328 109.679 23.328C110.207 23.328 110.655 23.168 111.151 22.544C111.311 22.496 111.423 22.592 111.439 22.736C110.911 23.824 109.759 24.224 108.927 24.224C107.887 24.224 107.071 23.776 106.607 23.168C106.127 22.544 105.935 21.792 105.935 21.088C105.935 19.12 107.231 17.472 109.151 17.472C110.527 17.472 111.423 18.416 111.423 19.376C111.423 19.6 111.391 19.728 111.359 19.792C111.311 19.888 111.087 19.904 110.415 19.904ZM107.311 19.424H108.447C109.631 19.424 109.983 19.36 110.111 19.264C110.159 19.232 110.207 19.168 110.207 18.96C110.207 18.512 109.903 17.952 108.975 17.952C108.031 17.952 107.215 18.816 107.199 19.344C107.199 19.376 107.199 19.424 107.311 19.424ZM113.287 22.208V19.408C113.287 18.784 113.287 18.704 112.855 18.416L112.711 18.32C112.647 18.256 112.647 18.08 112.727 18.032C113.095 17.904 113.943 17.488 114.343 17.248C114.423 17.264 114.471 17.296 114.471 17.36V18.288C114.471 18.368 114.487 18.416 114.519 18.432C115.079 17.968 115.687 17.472 116.279 17.472C116.679 17.472 116.999 17.728 116.999 18.112C116.999 18.64 116.567 18.848 116.311 18.848C116.151 18.848 116.071 18.8 115.959 18.736C115.719 18.576 115.479 18.48 115.255 18.48C114.999 18.48 114.807 18.624 114.679 18.8C114.519 19.024 114.471 19.488 114.471 20.032V22.208C114.471 23.36 114.503 23.552 115.111 23.6L115.687 23.648C115.799 23.728 115.767 24 115.655 24.048C114.903 24.016 114.439 24 113.879 24C113.303 24 112.823 24.016 112.407 24.048C112.295 24 112.263 23.728 112.375 23.648L112.679 23.6C113.271 23.504 113.287 23.36 113.287 22.208ZM120.007 17.472C120.679 17.472 121.271 17.632 121.415 17.76C121.559 18.112 121.671 18.624 121.671 19.056C121.607 19.168 121.367 19.2 121.287 19.104C121.015 18.4 120.535 17.936 119.879 17.936C119.255 17.936 118.855 18.336 118.855 18.912C118.855 19.568 119.527 19.92 120.087 20.24C120.935 20.72 121.719 21.264 121.719 22.4C121.719 23.616 120.599 24.224 119.415 24.224C118.663 24.224 118.103 24.064 117.703 23.744C117.575 23.44 117.479 22.656 117.511 22.128C117.591 22.032 117.799 22.016 117.879 22.112C118.151 22.992 118.663 23.76 119.575 23.76C120.151 23.76 120.647 23.424 120.647 22.736C120.647 22 120.007 21.6 119.415 21.264C118.487 20.736 117.831 20.176 117.831 19.296C117.831 18.128 118.791 17.472 120.007 17.472ZM127.243 19.904H124.283C123.867 19.904 123.851 19.936 123.851 20.336C123.851 21.952 124.795 23.328 126.507 23.328C127.035 23.328 127.483 23.168 127.979 22.544C128.139 22.496 128.251 22.592 128.267 22.736C127.739 23.824 126.587 24.224 125.755 24.224C124.715 24.224 123.899 23.776 123.435 23.168C122.955 22.544 122.763 21.792 122.763 21.088C122.763 19.12 124.059 17.472 125.979 17.472C127.355 17.472 128.251 18.416 128.251 19.376C128.251 19.6 128.219 19.728 128.187 19.792C128.139 19.888 127.915 19.904 127.243 19.904ZM124.139 19.424H125.275C126.459 19.424 126.811 19.36 126.939 19.264C126.987 19.232 127.035 19.168 127.035 18.96C127.035 18.512 126.731 17.952 125.803 17.952C124.859 17.952 124.043 18.816 124.027 19.344C124.027 19.376 124.027 19.424 124.139 19.424Z" fill="white"/>
<rect x="0.5" y="0.5" width="170" height="39" stroke="#878787"/>
</svg>
