<svg width="122" height="86" viewBox="0 0 122 86" fill="none" xmlns="http://www.w3.org/2000/svg">
<g clip-path="url(#clip0_395_385)">
<path d="M31.4758 23.19H31.4157C31.4157 23.19 30.8152 25.09 30.3649 26.39L27.6627 34H35.0887L32.4866 26.39C32.0463 25.12 31.4758 23.19 31.4758 23.19Z" fill="white"/>
<path d="M61.7806 24.01L57.297 0H0V63.71H50.4614L65.2335 86H122V24.01H61.7806ZM38.2914 43.23L35.8794 36.32H26.832L24.39 43.23H21.4676L29.8144 20.55H33.0171L41.3939 43.23H38.2814H38.2914ZM52.2628 63.71H67.6755L65.3736 83.5L52.2628 63.71ZM120.499 84.5H66.7647L69.1867 63.71V63.69V63.67L62.0609 25.51H120.499V84.51V84.5Z" fill="white"/>
<path d="M77.2033 58.33L80.8563 54.69L89.3933 66.36H92.726L82.7879 52.75L91.9654 43.68H88.3724L77.2033 54.94V43.68H74.3409V66.36H77.2033V58.33Z" fill="white"/>
<path d="M103.605 66.83C110.461 66.83 114.714 61.79 114.714 55C114.714 48.21 110.461 43.17 103.605 43.17C96.7493 43.17 92.4958 48.21 92.4958 55C92.4958 61.79 96.7493 66.83 103.605 66.83ZM103.605 45.65C108.939 45.65 111.792 49.68 111.792 55C111.792 60.32 108.939 64.32 103.605 64.32C98.2705 64.32 95.4182 60.32 95.4182 55C95.4182 49.68 98.2705 45.65 103.605 45.65Z" fill="white"/>
</g>
<defs>
<clipPath id="clip0_395_385">
<rect width="122" height="86" fill="white"/>
</clipPath>
</defs>
</svg>
