<svg xmlns="http://www.w3.org/2000/svg" width="39.317" height="30.303" viewBox="0 0 39.317 30.303">
  <g id="Group_81" data-name="Group 81" transform="translate(118.455 1716.099)">
    <path id="Path_168" data-name="Path 168" d="M975.5,281.838h33.574v22.471h-18.7Zm32.074,1.5H978.295l12.889,19.471h16.394Z" transform="translate(-1088.215 -1990.104)" fill="#fff"/>
    <path id="Line_4" data-name="Line 4" d="M.745,7.677-.745,7.5.139-.087l1.49.174Z" transform="translate(-97.344 -1694.059)" fill="#fff"/>
    <path id="Path_169" data-name="Path 169" d="M956.307,257.831v22.085H978.56l-4.123-22.085Z" transform="translate(-1074.762 -1973.93)" fill="#fff"/>
    <path id="Path_170" data-name="Path 170" d="M978.305,282.882c-.085-.267-.133-.3-.5-.3h-1.832c-.3,0-.376.036-.461.292l-.425,1.274a4.639,4.639,0,0,0-.267,1.007c0,.146.061.218.352.243l.4.036a.2.2,0,0,1-.025.3c-.315-.024-.692-.024-1.262-.036-.4,0-.837.024-1.165.036a.239.239,0,0,1-.024-.3l.4-.036a.807.807,0,0,0,.728-.595c.218-.558.558-1.347,1.068-2.706l1.238-3.276a1.739,1.739,0,0,0,.207-.861,1.357,1.357,0,0,0,.63-.461.173.173,0,0,1,.182.109c.158.534.352,1.092.534,1.626l1.663,4.878c.352,1.043.509,1.225,1.031,1.286l.328.036a.238.238,0,0,1,0,.3c-.5-.024-.922-.036-1.469-.036-.582,0-1.043.024-1.4.036a.2.2,0,0,1-.024-.3l.352-.036c.255-.024.425-.1.425-.218a2.5,2.5,0,0,0-.157-.643Zm-2.4-1.08c-.1.279-.085.291.255.291h1.493c.352,0,.376-.049.267-.376l-.655-1.978a7.9,7.9,0,0,0-.279-.764h-.024a7.376,7.376,0,0,0-.292.716Z" transform="translate(-1085.704 -1986.776)"/>
    <path id="Path_171" data-name="Path 171" d="M1024.811,303.4c0-1.274-.024-1.468-.728-1.529l-.3-.024c-.073-.049-.048-.267.025-.3.595.024.983.036,1.529.036.473,0,.886-.012,1.407-.036.073.036.1.255.025.3l-.231.024c-.7.073-.728.255-.728,1.529v1.4c0,.231.024.461.158.461a.692.692,0,0,0,.34-.133c.17-.146.485-.461.619-.582l1.31-1.3a13.751,13.751,0,0,0,.947-1.007.361.361,0,0,0,.085-.194c0-.049-.049-.085-.207-.122l-.327-.072a.2.2,0,0,1,.024-.3c.425.024.91.036,1.335.036s.837-.012,1.2-.036a.225.225,0,0,1,.024.3,3,3,0,0,0-1.128.34,12.157,12.157,0,0,0-1.7,1.407l-1.092,1.032c-.17.17-.279.279-.279.376s.073.182.23.376c1.153,1.323,2.087,2.415,3.034,3.41a1.514,1.514,0,0,0,.971.5l.328.036a.212.212,0,0,1-.024.3c-.316-.024-.789-.036-1.359-.036-.5,0-.922.012-1.48.036-.085-.024-.121-.231-.049-.3l.279-.049c.17-.024.292-.061.292-.121s-.085-.17-.17-.279c-.23-.291-.546-.619-1.007-1.141l-.971-1.092c-.692-.777-.885-1.019-1.177-1.019-.182,0-.207.158-.207.582v1.566c0,1.274.024,1.444.7,1.517l.328.036c.073.049.048.267-.025.3-.594-.024-1.007-.036-1.48-.036-.5,0-.91.012-1.408.036a.234.234,0,0,1-.024-.3l.243-.036c.643-.1.667-.243.667-1.517Z" transform="translate(-1118.815 -2002.486)" fill="#fff"/>
    <path id="Path_172" data-name="Path 172" d="M1052.5,312.978a2.479,2.479,0,0,1-2.56,2.609,2.4,2.4,0,0,1-2.487-2.5,2.55,2.55,0,0,1,2.584-2.621,2.424,2.424,0,0,1,2.463,2.512m-2.609-2.148c-.8,0-1.4.764-1.4,2.1,0,1.1.5,2.293,1.565,2.293s1.4-1.116,1.4-2.051c0-1.032-.413-2.342-1.566-2.342" transform="translate(-1134.31 -2008.318)" fill="#fff"/>
  </g>
</svg>
