<svg width="122" height="86" viewBox="0 0 122 86" fill="none" xmlns="http://www.w3.org/2000/svg">
<g clip-path="url(#clip0_395_380)">
<path d="M41.414 22.54C36.0796 22.54 33.2273 26.57 33.2273 31.89C33.2273 37.21 36.0796 41.21 41.414 41.21C46.7484 41.21 49.6007 37.22 49.6007 31.89C49.6007 26.56 46.7484 22.54 41.414 22.54Z" fill="white"/>
<path d="M61.7806 24.01L57.297 0H0V63.71H50.4614L65.2335 86H122V24.01H61.7806ZM27.2023 43.25L18.6653 31.58L15.0123 35.23V43.25H12.15V20.57H15.0123V31.83L26.1815 20.57H29.7644L20.5969 29.64L30.535 43.24H27.2023V43.25ZM41.4139 43.73C34.5583 43.73 30.3048 38.69 30.3048 31.9C30.3048 25.11 34.5583 20.07 41.4139 20.07C48.2696 20.07 52.523 25.11 52.523 31.9C52.523 38.69 48.2696 43.73 41.4139 43.73ZM52.2628 63.71H67.6755L65.3736 83.5L52.2628 63.71ZM120.499 84.5H66.7647L69.1867 63.71V63.69V63.67L62.0609 25.51H120.499V84.51V84.5Z" fill="white"/>
<path d="M87.1814 59.43H96.2288L98.6408 66.34H101.753L93.3765 43.66H90.1739L81.827 66.34H84.7494L87.1914 59.43H87.1814ZM90.7043 49.5C91.1447 48.2 91.7552 46.3 91.7552 46.3H91.8152C91.8152 46.3 92.3857 48.24 92.836 49.5L95.4382 57.11H88.0121L90.7143 49.5H90.7043Z" fill="white"/>
</g>
<defs>
<clipPath id="clip0_395_380">
<rect width="122" height="86" fill="white"/>
</clipPath>
</defs>
</svg>
