<svg xmlns="http://www.w3.org/2000/svg" width="39.316" height="30.303" viewBox="0 0 39.316 30.303">
  <g id="Group_79" data-name="Group 79" transform="translate(674.327 3177.058)">
    <path id="Path_2498" data-name="Path 2498" d="M976.656,259.338h33.574v22.471h-18.7Zm32.074,1.5H979.448l12.889,19.471h16.394Z" transform="translate(-1645.24 -3428.564)" fill="#fff"/>
    <path id="Line_26" data-name="Line 26" d="M.745,7.677-.745,7.5.139-.087l1.49.174Z" transform="translate(-653.217 -3155.019)" fill="#fff"/>
    <path id="Path_2499" data-name="Path 2499" d="M957.46,235.331v22.085h22.253l-4.123-22.085Z" transform="translate(-1631.787 -3412.39)" fill="#fff"/>
    <path id="Path_2500" data-name="Path 2500" d="M968.025,257.306c0-1.274-.024-1.468-.728-1.529l-.3-.024c-.073-.049-.049-.267.024-.3.594.024.983.036,1.529.036.473,0,.886-.012,1.407-.036.073.036.1.254.025.3l-.23.024c-.7.073-.728.255-.728,1.529v1.4c0,.231.024.461.158.461a.688.688,0,0,0,.34-.133c.17-.146.485-.461.619-.582l1.31-1.3a13.782,13.782,0,0,0,.947-1.007.36.36,0,0,0,.085-.194c0-.049-.048-.085-.206-.121l-.328-.072a.2.2,0,0,1,.024-.3c.425.024.91.036,1.335.036s.837-.012,1.2-.036a.225.225,0,0,1,.024.3,2.99,2.99,0,0,0-1.128.339,12.156,12.156,0,0,0-1.7,1.408l-1.092,1.031c-.17.17-.279.279-.279.376s.073.182.23.376c1.153,1.323,2.087,2.415,3.034,3.41a1.512,1.512,0,0,0,.971.5l.328.036a.213.213,0,0,1-.024.3c-.315-.024-.789-.036-1.359-.036-.5,0-.922.012-1.481.036-.085-.024-.121-.231-.048-.3l.279-.049c.17-.024.291-.06.291-.121s-.085-.17-.17-.279c-.231-.291-.546-.619-1.007-1.141l-.971-1.092c-.692-.777-.886-1.02-1.177-1.02-.182,0-.206.158-.206.583v1.565c0,1.274.024,1.444.7,1.517l.328.036c.073.049.048.267-.025.3-.594-.024-1.007-.036-1.48-.036-.5,0-.91.012-1.407.036a.234.234,0,0,1-.024-.3l.243-.036c.643-.1.667-.243.667-1.517Z" transform="translate(-1637.987 -3425.534)"/>
    <path id="Path_2501" data-name="Path 2501" d="M995.713,266.887a2.479,2.479,0,0,1-2.56,2.609,2.4,2.4,0,0,1-2.488-2.5,2.55,2.55,0,0,1,2.585-2.621,2.424,2.424,0,0,1,2.463,2.512m-2.609-2.148c-.8,0-1.4.764-1.4,2.1,0,1.1.5,2.294,1.565,2.294s1.4-1.117,1.4-2.051c0-1.032-.413-2.342-1.566-2.342" transform="translate(-1653.481 -3431.365)"/>
    <path id="Path_2502" data-name="Path 2502" d="M1037.4,283.973c-.085-.267-.134-.3-.5-.3h-1.832c-.3,0-.376.037-.461.291l-.425,1.274a4.627,4.627,0,0,0-.267,1.007c0,.146.061.218.352.243l.4.036a.2.2,0,0,1-.024.3c-.315-.025-.692-.025-1.262-.037-.4,0-.837.025-1.165.037a.239.239,0,0,1-.024-.3l.4-.036a.807.807,0,0,0,.728-.595c.218-.558.558-1.347,1.068-2.706l1.238-3.276a1.741,1.741,0,0,0,.206-.862,1.361,1.361,0,0,0,.631-.461.172.172,0,0,1,.182.109c.158.534.352,1.092.534,1.626l1.663,4.878c.352,1.044.51,1.226,1.031,1.286l.328.036a.239.239,0,0,1,0,.3c-.5-.025-.922-.037-1.469-.037-.582,0-1.043.025-1.4.037a.2.2,0,0,1-.024-.3l.352-.036c.255-.024.425-.1.425-.218a2.487,2.487,0,0,0-.158-.643Zm-2.4-1.08c-.1.279-.085.291.255.291h1.493c.352,0,.376-.049.267-.376l-.656-1.978a7.964,7.964,0,0,0-.279-.764h-.024a7.392,7.392,0,0,0-.291.716Z" transform="translate(-1680.587 -3440.649)" fill="#fff"/>
  </g>
</svg>
