<svg width="171" height="40" viewBox="0 0 171 40" fill="none" xmlns="http://www.w3.org/2000/svg">
<path d="M67.9963 16.84L68.3803 16.66C68.7283 16.672 69.2563 16.744 69.4843 16.816C69.5563 16.852 69.6043 16.924 69.6043 16.996C69.6043 17.224 69.4603 17.428 69.3523 17.488C69.1243 17.452 68.5363 17.452 68.2603 17.452C67.8403 17.44 65.3683 17.5 64.9723 17.536C64.7323 17.548 64.3003 17.632 64.0723 17.704C63.7363 17.572 63.3523 17.32 63.1003 17.104C63.0523 17.056 63.0523 17.02 63.0643 16.984L63.1483 16.828C63.4963 16.888 63.9883 16.924 64.2643 16.924C64.7323 16.936 67.5043 16.876 67.9963 16.84ZM70.1323 15.136L70.2403 14.812C70.2643 14.764 70.2883 14.752 70.3843 14.752C70.8643 14.764 71.6683 14.932 72.0403 15.076C72.1483 15.124 72.1963 15.208 72.1843 15.34L72.1483 16V23.632C72.1483 24.352 72.0283 25.576 71.8123 26.296H71.2363C71.1883 25.816 71.1403 24.508 71.1403 23.968V19.804C70.7683 19.804 70.2043 19.816 69.9763 19.852C69.7603 19.876 69.4243 19.948 69.2083 20.032C68.9203 19.9 68.6683 19.756 68.4403 19.6L68.3683 22C68.9443 21.94 69.4723 21.868 69.8683 21.796C69.9283 21.784 69.9763 21.796 69.9883 21.844L70.0363 22.12C70.0483 22.192 70.0123 22.228 69.9523 22.24C68.8003 22.54 66.4363 22.936 65.0923 23.044C64.8403 23.056 64.3483 23.164 64.1203 23.248C63.7003 23.068 63.2563 22.78 62.9323 22.504C62.8843 22.456 62.8723 22.42 62.8963 22.36L62.9803 22.18C63.3883 22.264 63.8923 22.3 64.3003 22.288C64.4683 22.288 64.6603 22.276 64.8643 22.276L64.6483 19.24C64.5283 19.06 64.2883 18.856 64.0003 18.736L64.1203 18.448C64.1323 18.4 64.1683 18.388 64.2643 18.388C64.6363 18.424 65.2123 18.568 65.5003 18.7C65.5963 18.736 65.6203 18.796 65.6203 18.892L65.6083 19.384L65.7163 22.228C66.2923 22.192 66.9163 22.144 67.5283 22.084L67.5043 18.712C67.3723 18.568 67.1083 18.4 66.8563 18.316L66.9283 18.028C66.9403 17.992 66.9763 17.968 67.0723 17.968C67.4563 17.968 68.0803 18.04 68.3683 18.136C68.4643 18.16 68.5003 18.232 68.5003 18.34L68.4643 18.844L68.4523 19.24C68.7403 19.264 69.0763 19.276 69.3523 19.276C69.7363 19.276 70.6123 19.24 71.1403 19.216V15.784C70.9483 15.52 70.5643 15.292 70.1323 15.136ZM83.2462 23.608L83.7022 23.416C84.1582 23.428 84.8062 23.512 85.0942 23.608C85.2022 23.644 85.2622 23.716 85.2622 23.824C85.2622 24.064 85.1062 24.268 84.9742 24.328C84.6622 24.292 83.9182 24.268 83.5582 24.268C82.7182 24.268 77.3782 24.328 76.7182 24.364C76.4062 24.388 75.7702 24.508 75.4702 24.604C75.0142 24.448 74.5582 24.172 74.2462 23.908C74.2102 23.872 74.1982 23.836 74.2102 23.788L74.3062 23.608C74.7262 23.68 75.2902 23.728 75.6862 23.728C76.0462 23.728 77.6062 23.716 79.2262 23.692V21.196C78.4462 21.22 77.7862 21.232 77.5702 21.244C77.3182 21.256 76.8502 21.34 76.6102 21.424C76.2382 21.292 75.8182 21.028 75.5542 20.788C75.5182 20.752 75.5062 20.716 75.5182 20.68L75.6022 20.512C75.9862 20.584 76.5262 20.632 76.8262 20.632L77.7382 20.62L77.5942 18.304C77.4742 18.112 77.2222 17.92 76.9462 17.8L77.0542 17.512C77.0782 17.476 77.1142 17.452 77.2102 17.452C77.5942 17.488 78.1822 17.62 78.4702 17.74C78.5662 17.788 78.6022 17.848 78.5902 17.956L78.5662 18.472L78.6262 20.62L80.9542 20.584L81.0022 17.932C80.8822 17.776 80.6182 17.62 80.3542 17.524L80.4262 17.236C80.4262 17.212 80.4742 17.176 80.5702 17.176C80.9542 17.176 81.6022 17.26 81.8902 17.356C81.9982 17.38 82.0342 17.452 82.0342 17.56L81.9862 18.076L81.8302 20.56C81.9502 20.56 82.0462 20.548 82.1062 20.548L82.5142 20.368C82.8982 20.38 83.4622 20.44 83.7022 20.524C83.7742 20.56 83.8342 20.632 83.8342 20.704C83.8342 20.944 83.6902 21.148 83.5942 21.208C83.3422 21.172 82.6702 21.16 82.3942 21.16C82.1182 21.16 81.1942 21.172 80.2222 21.184V23.68C81.6262 23.656 82.8862 23.632 83.2462 23.608ZM82.1302 16.132L82.5502 15.952C82.9342 15.964 83.4862 16.024 83.7262 16.108C83.8102 16.144 83.8702 16.216 83.8702 16.288C83.8702 16.528 83.7262 16.732 83.6302 16.792C83.3782 16.756 82.7062 16.756 82.4182 16.756C81.8062 16.756 78.0862 16.792 77.5222 16.828C77.2702 16.84 76.8022 16.924 76.5622 17.008C76.1902 16.876 75.7702 16.612 75.5062 16.372C75.4702 16.336 75.4582 16.288 75.4702 16.264L75.5542 16.096C75.9382 16.168 76.4782 16.216 76.7782 16.216C77.3782 16.216 81.4582 16.168 82.1302 16.132ZM94.392 25.204L94.8 24.976C95.172 24.976 95.724 25.012 95.976 25.072C96.072 25.096 96.144 25.156 96.144 25.264C96.144 25.516 96.06 25.684 96 25.756C95.952 25.804 95.892 25.816 95.82 25.816L90.696 25.852H90.684C89.868 25.84 89.58 25.552 89.58 24.868V23.248C89.388 23.08 89.052 22.948 88.74 22.864L88.8 22.576C88.812 22.516 88.86 22.492 88.944 22.492C89.364 22.492 90.12 22.54 90.444 22.612C90.564 22.636 90.624 22.72 90.624 22.864L90.612 23.416V24.928C90.612 25.144 90.696 25.24 90.9 25.24C91.656 25.252 93.684 25.24 94.392 25.204ZM92.004 21.004L88.068 21.052C88.044 21.268 87.984 21.436 87.876 21.604H87.324C87.252 21.4 87.216 21.112 87.192 20.872L86.928 17.104C86.796 16.96 86.544 16.816 86.292 16.732L86.364 16.432C86.388 16.396 86.412 16.372 86.496 16.372C86.892 16.372 87.636 16.432 88.032 16.504C88.752 16.504 90.252 16.492 90.984 16.444L91.428 16.204C91.476 16.18 91.572 16.18 91.632 16.204C91.788 16.276 92.1 16.444 92.232 16.528C92.268 16.564 92.28 16.612 92.256 16.684L92.1 17.128C92.088 17.476 92.064 17.848 92.04 18.22C92.22 18.232 92.424 18.244 92.592 18.244C92.952 18.244 93.732 18.232 94.308 18.196V15.772C94.116 15.52 93.732 15.292 93.324 15.148L93.42 14.812C93.444 14.764 93.468 14.752 93.576 14.752C94.044 14.764 94.836 14.932 95.196 15.076C95.316 15.124 95.352 15.208 95.352 15.34L95.316 15.988V20.848C95.316 21.712 95.196 22.744 94.98 23.368H94.404C94.332 22.9 94.308 21.736 94.308 21.184V18.772C93.9 18.772 93.42 18.772 93.204 18.796C92.988 18.82 92.664 18.892 92.448 18.988C92.292 18.904 92.136 18.82 91.992 18.724C91.956 19.276 91.896 19.828 91.824 20.32L92.052 20.428C92.112 20.464 92.136 20.5 92.136 20.572C92.136 20.764 92.064 20.944 92.004 21.004ZM88.02 17.116L88.092 20.44C88.872 20.44 90.156 20.416 90.792 20.392L90.996 20.332L91.032 17.068C90.096 17.068 88.956 17.092 88.02 17.116ZM98.3258 21.676L98.1818 21.484C98.1458 21.436 98.1698 21.4 98.2178 21.376C100.366 20.14 102.01 18.472 102.73 16.888C102.61 16.672 102.322 16.408 102.022 16.24L102.202 15.964C102.238 15.904 102.286 15.88 102.358 15.904C102.874 16 103.57 16.252 103.858 16.432C103.978 16.504 104.038 16.588 104.038 16.696C104.038 16.816 104.014 16.912 103.966 16.984C103.786 17.404 103.534 17.812 103.234 18.208L105.598 19.504L106.39 19.66C106.69 19.864 107.11 20.212 107.302 20.416C107.434 20.56 107.506 20.692 107.494 20.788C107.482 20.968 107.29 21.124 107.122 21.124C107.026 21.124 106.87 21.052 106.75 20.98L102.826 18.712C101.782 19.912 100.246 20.968 98.4578 21.688C98.3978 21.712 98.3498 21.712 98.3258 21.676ZM106.426 23.5L106.882 23.308C107.338 23.32 107.986 23.404 108.274 23.5C108.382 23.536 108.442 23.608 108.442 23.716C108.442 23.956 108.286 24.16 108.154 24.22C107.842 24.184 107.098 24.16 106.738 24.16C105.898 24.148 100.558 24.22 99.8978 24.256C99.5858 24.28 98.9498 24.4 98.6498 24.496C98.1938 24.34 97.7378 24.064 97.4258 23.8C97.3898 23.764 97.3778 23.716 97.3898 23.68L97.4858 23.488C97.9058 23.572 98.4698 23.62 98.8658 23.62C99.6218 23.632 105.586 23.56 106.426 23.5Z" fill="white"/>
<rect x="0.5" y="0.5" width="170" height="39" stroke="#878787"/>
</svg>
