<svg width="171" height="40" viewBox="0 0 171 40" fill="none" xmlns="http://www.w3.org/2000/svg">
<path d="M66.0763 21.496C67.0723 21.496 67.8163 20.812 67.8163 19.66C67.8163 18.508 67.0723 17.812 66.0763 17.812C65.0803 17.812 64.3363 18.508 64.3363 19.66C64.3363 20.812 65.0803 21.496 66.0763 21.496ZM70.1323 15.136L70.2403 14.812C70.2643 14.764 70.2883 14.752 70.3843 14.752C70.8643 14.764 71.6683 14.932 72.0403 15.076C72.1483 15.124 72.1963 15.208 72.1843 15.34L72.1483 16V23.632C72.1483 24.352 72.0283 25.576 71.8123 26.296H71.2363C71.1883 25.816 71.1403 24.508 71.1403 23.968V21.22C70.7083 21.22 70.1683 21.232 69.9283 21.256C69.7123 21.28 69.4003 21.352 69.1843 21.424C68.9323 21.316 68.7043 21.172 68.5003 21.028C68.0323 21.808 67.1443 22.288 66.0763 22.288C64.4563 22.288 63.2683 21.22 63.2683 19.66C63.2683 18.1 64.4563 17.032 66.0763 17.032C67.6843 17.032 68.8603 18.1 68.8603 19.66C68.8603 20.02 68.8003 20.356 68.6803 20.668C68.8963 20.68 69.1243 20.692 69.3283 20.692C69.7123 20.692 70.5523 20.668 71.1403 20.632V18.34C70.8163 18.34 70.3843 18.352 70.1923 18.376C69.9763 18.4 69.6643 18.46 69.4483 18.544C69.1123 18.388 68.8123 18.196 68.5843 18.004C68.5363 17.956 68.5363 17.92 68.5483 17.872L68.6323 17.74C68.9083 17.776 69.2803 17.8 69.5923 17.8C69.9403 17.8 70.6483 17.776 71.1403 17.74V15.784C70.9483 15.52 70.5643 15.292 70.1323 15.136ZM75.8542 16L75.9502 15.892C76.9342 16.072 77.8702 16.108 78.6142 16.12C78.7222 16.12 78.7702 16.156 78.8062 16.228C78.8662 16.36 78.8422 16.636 78.7582 16.732C78.7222 16.792 78.6622 16.804 78.5902 16.804C78.0622 16.804 77.2702 16.828 76.8022 16.852C76.6942 16.864 76.6462 16.864 76.5742 16.816C76.3462 16.672 76.0582 16.396 75.8782 16.144C75.8422 16.084 75.8422 16.048 75.8542 16ZM78.9142 17.368L79.2742 17.212C79.5742 17.224 80.0662 17.272 80.2702 17.344C80.3422 17.368 80.3902 17.428 80.3902 17.512C80.3902 17.752 80.2462 17.944 80.1262 18.004C79.9342 17.98 79.4182 17.968 79.1542 17.968C78.7582 17.968 76.4542 18.028 76.0582 18.052C75.8542 18.076 75.4462 18.148 75.2422 18.208C74.9302 18.076 74.5942 17.836 74.3662 17.632C74.3182 17.596 74.3182 17.548 74.3302 17.524L74.4142 17.368C74.7262 17.428 75.1582 17.452 75.4222 17.452C75.8662 17.464 78.4462 17.404 78.9142 17.368ZM77.6182 21.292C78.3502 21.292 78.9262 20.872 78.9262 20.116C78.9262 19.372 78.3502 18.94 77.6182 18.94C76.8862 18.94 76.3222 19.372 76.3222 20.116C76.3222 20.872 76.8862 21.292 77.6182 21.292ZM79.8622 20.116C79.8622 21.22 78.8662 21.892 77.6182 21.892C76.3582 21.892 75.3502 21.22 75.3502 20.116C75.3502 19.048 76.3582 18.376 77.6182 18.376C78.8662 18.376 79.8622 19.048 79.8622 20.116ZM81.2062 25.504C82.1182 25.504 82.7902 24.976 82.7902 24.112C82.7902 23.248 82.1182 22.708 81.2062 22.708C80.2942 22.708 79.6102 23.248 79.6102 24.112C79.6102 24.976 80.2942 25.504 81.2062 25.504ZM81.2062 22.036C82.7062 22.036 83.8342 22.888 83.8342 24.112C83.8342 25.408 82.7062 26.284 81.2062 26.284C79.7062 26.284 78.5782 25.408 78.5782 24.112C78.5782 22.888 79.7062 22.036 81.2062 22.036ZM82.2262 15.136L82.3342 14.824C82.3462 14.764 82.3942 14.752 82.4902 14.752C82.9222 14.764 83.6782 14.92 84.0142 15.064C84.1342 15.112 84.1702 15.196 84.1582 15.328L84.1342 15.928V20.26C84.1342 20.896 83.9902 21.808 83.8222 22.288H83.2342C83.1862 21.892 83.1502 21.004 83.1502 20.548V19.276L81.8182 19.3V19.612C81.8182 20.32 81.6862 21.16 81.5182 21.616H80.9662C80.8942 21.208 80.8702 20.38 80.8702 19.888V16.336C80.7022 16.12 80.3782 15.928 80.0302 15.796L80.1382 15.484C80.1502 15.436 80.1982 15.412 80.2942 15.412C80.7022 15.424 81.3982 15.568 81.7102 15.724C81.8062 15.76 81.8542 15.844 81.8422 15.964L81.8182 16.516V18.688L83.1502 18.664V15.736C82.9702 15.496 82.6102 15.28 82.2262 15.136ZM87.444 16L87.54 15.868C88.644 16.06 89.784 16.108 90.624 16.096C90.744 16.096 90.804 16.12 90.84 16.204C90.9 16.348 90.876 16.66 90.792 16.768C90.744 16.828 90.684 16.84 90.6 16.84C89.988 16.84 89.028 16.876 88.488 16.912C88.356 16.924 88.296 16.912 88.224 16.864C87.972 16.708 87.66 16.408 87.456 16.12C87.432 16.06 87.432 16.036 87.444 16ZM89.388 22.768C90.192 22.768 90.888 22.24 90.888 21.328C90.888 20.428 90.192 19.9 89.388 19.9C88.584 19.9 87.9 20.428 87.9 21.328C87.9 22.24 88.584 22.768 89.388 22.768ZM89.388 19.216C90.732 19.216 91.872 20.056 91.872 21.328C91.872 22.612 90.732 23.44 89.388 23.44C88.044 23.44 86.892 22.612 86.892 21.328C86.892 20.056 88.044 19.216 89.388 19.216ZM91.26 17.8L91.644 17.632C91.98 17.632 92.496 17.704 92.724 17.776C92.808 17.812 92.856 17.884 92.856 17.956C92.856 18.196 92.712 18.4 92.604 18.472C92.388 18.436 91.8 18.424 91.524 18.424C91.056 18.424 88.092 18.472 87.648 18.508C87.408 18.52 86.964 18.604 86.748 18.688C86.4 18.544 86.016 18.292 85.776 18.064C85.728 18.028 85.728 17.98 85.74 17.944L85.824 17.788C86.172 17.848 86.664 17.884 86.952 17.884C87.456 17.896 90.72 17.836 91.26 17.8ZM95.388 20.14L95.772 19.9C96.132 19.888 96.624 19.912 96.84 19.96C96.96 19.984 97.032 20.08 97.044 20.176C97.044 20.416 96.972 20.596 96.9 20.668C96.828 20.716 96.72 20.752 96.624 20.752L94.608 20.788V23.632C94.608 24.352 94.476 25.576 94.26 26.296H93.684C93.636 25.816 93.6 24.508 93.6 23.968V15.784C93.396 15.52 93.012 15.292 92.58 15.136L92.688 14.812C92.712 14.764 92.736 14.752 92.844 14.752C93.312 14.764 94.116 14.932 94.488 15.076C94.596 15.124 94.644 15.208 94.644 15.34L94.608 16V20.164L95.388 20.14ZM102.742 16.864L103.15 16.66C103.21 16.624 103.306 16.624 103.366 16.66C103.522 16.72 103.846 16.888 103.966 16.972C104.014 17.008 104.014 17.068 103.99 17.128L103.774 17.5C103.138 19.672 100.99 22.084 98.3378 23.536C98.2898 23.572 98.2418 23.572 98.2178 23.548L98.0498 23.392C98.0138 23.356 98.0018 23.32 98.0378 23.272C100.27 21.604 101.914 19.42 102.586 17.464C101.902 17.464 100.486 17.488 100.174 17.512C99.9338 17.524 99.4898 17.608 99.2498 17.704C98.9018 17.56 98.5418 17.344 98.2898 17.128C98.2418 17.092 98.2418 17.056 98.2538 17.008L98.3378 16.852C98.6618 16.912 99.1058 16.936 99.4178 16.936C99.8618 16.936 102.142 16.9 102.742 16.864ZM104.818 15.136L104.926 14.812C104.938 14.764 104.974 14.752 105.07 14.752C105.55 14.764 106.354 14.932 106.726 15.076C106.834 15.124 106.882 15.208 106.87 15.34L106.834 16V23.632C106.834 24.352 106.714 25.576 106.498 26.296H105.922C105.874 25.816 105.826 24.508 105.826 23.968V15.784C105.634 15.52 105.25 15.292 104.818 15.136Z" fill="white"/>
<rect x="0.5" y="0.5" width="170" height="39" stroke="#878787"/>
</svg>
