<svg xmlns="http://www.w3.org/2000/svg" width="52.608" height="31.442" viewBox="0 0 52.608 31.442">
  <g id="Group_14" data-name="Group 14" transform="translate(281.279 1715.945)">
    <path id="Path_139" data-name="Path 139" d="M491.384,303.417v1.162h1.009v1.987h-3.586v-1.987h1v-1.162h-3.187v1.162h1.016v5.851h-1.016v1.158h3.187V310.43h-1v-2.714h3.586v2.714h-1.009v1.158h3.2V310.43h-1.018v-5.851h1.018v-1.162Z" transform="translate(-767.902 -2003.712)" fill="#fff"/>
    <path id="Path_140" data-name="Path 140" d="M595.746,303.416h6.512V305.7h-1.114v-1.121h-3.166v1.971h2.7V307.7h-2.7v2.725h3.142v-1.566h1.151v2.723h-6.524v-1.157h1.062v-5.851h-1.062Z" transform="translate(-839.195 -2003.712)" fill="#fff"/>
    <path id="Path_141" data-name="Path 141" d="M513.88,303.416h6.513V305.7h-1.115v-1.121h-3.166v1.971h2.7V307.7h-2.7v2.725h3.142v-1.566H520.4v2.723H513.88v-1.157h1.062v-5.851H513.88Z" transform="translate(-785.709 -2003.712)" fill="#fff"/>
    <path id="Path_142" data-name="Path 142" d="M601.21,300.185l.642.718h2.282l-.584-.718Z" transform="translate(-842.765 -2001.601)" fill="#fff"/>
    <path id="Path_143" data-name="Path 143" d="M624.546,306.563c-.8-.234-1.358-.18-2.169-.461-.732-.253-.877-.718-.877-1.024a1.307,1.307,0,0,1,1.473-1.11,1.832,1.832,0,0,1,1.946,1.477l0,0v0h1.1v-2.382H624.96v.52l.033.162a.041.041,0,0,1,0,.012l0-.012a.549.549,0,0,0-.153-.206v0a2.853,2.853,0,0,0-1.957-.657,2.393,2.393,0,0,0-2.566,2.21,2.133,2.133,0,0,0,1.838,2.143c.844.23,1.275.23,1.978.426a1.357,1.357,0,0,1,1.159,1.28c0,.615-.365,1.417-1.855,1.417a2.054,2.054,0,0,1-2.251-2.014l-.012,0h-1.052v2.891h1.1v-.541l0,0-.039-.142a.469.469,0,0,0,.164.187l.01.013a3.485,3.485,0,0,0,2.224.734,2.635,2.635,0,0,0,2.872-2.51,2.284,2.284,0,0,0-1.9-2.407" transform="translate(-855.12 -2003.359)" fill="#fff"/>
    <path id="Path_144" data-name="Path 144" d="M572.156,310.429v-5.851h1.06v-1.162h-2.888l-1.916,4.777-.038.233-.039-.239-1.913-4.771h-2.888v1.162h1.06v5.851h-1.06v1.157h3.232v-1.157h-1.009V305.05l.007-.355.095.284,2.2,5.433h.628l2.21-5.438.081-.284.011.324v5.414h-1.008v1.157h3.233v-1.157Z" transform="translate(-818.15 -2003.712)" fill="#fff"/>
    <path id="Path_145" data-name="Path 145" d="M519.536,293.761h-1.088v-.267h.778a3.688,3.688,0,0,0,.311.267" transform="translate(-788.694 -1997.229)" fill="#fff"/>
    <path id="Path_146" data-name="Path 146" d="M600.683,293.769a.382.382,0,0,1,.289-.263h.566v.263Z" transform="translate(-842.421 -1997.237)" fill="#fff"/>
    <path id="Path_147" data-name="Path 147" d="M528.923,294.884a1.873,1.873,0,0,1-1.573,0h-5.732a2.091,2.091,0,0,1-1.709,0l-1.463,0v.566h29.361v-.566Z" transform="translate(-788.693 -1998.137)" fill="#fff"/>
    <path id="Path_148" data-name="Path 148" d="M528.633,293.761a1.914,1.914,0,0,0,.3-.267h4.434a1.654,1.654,0,0,0,.282.267Z" transform="translate(-795.348 -1997.229)" fill="#fff"/>
    <path id="Path_149" data-name="Path 149" d="M543.23,287.838a1.44,1.44,0,1,0-1.4-1.439,1.418,1.418,0,0,0,1.4,1.439v.3a1.736,1.736,0,1,1,1.683-1.735,1.709,1.709,0,0,1-1.683,1.735Z" transform="translate(-803.786 -1991.46)" fill="#fff"/>
    <path id="Path_150" data-name="Path 150" d="M523.437,285.35a1.9,1.9,0,1,0-1.9,1.954,1.925,1.925,0,0,0,1.9-1.954h-.3a1.591,1.591,0,1,1-1.59-1.639,1.615,1.615,0,0,1,1.59,1.639Z" transform="translate(-789.477 -1990.632)" fill="#fff"/>
    <path id="Path_151" data-name="Path 151" d="M544.7,287.936l-.563-.674c-.006-.007,0-.024.005-.034a.69.69,0,0,0,.041-.072c0-.01.023-.025.033-.023l.83.236c.032.009.095.048.087.075a1.928,1.928,0,0,0,.055-.211c-.007.027-.08.036-.113.027l-.828-.237c-.009,0-.014-.021-.014-.031a.8.8,0,0,0-.008-.1c0-.012,0-.035.013-.04l.8-.314c.031-.011.1-.007.112.018a1.708,1.708,0,0,0-.076-.216c.01.025-.044.079-.075.092l.054-.02-.856.332c-.008,0-.022-.008-.029-.016a.83.83,0,0,0-.061-.076c-.008-.007-.017-.031-.011-.04l.473-.743c.018-.028.077-.068.1-.052a1.88,1.88,0,0,0-.18-.128c.023.015.006.088-.011.117l-.474.741c0,.008-.022.007-.033,0a.576.576,0,0,0-.094-.023c-.011,0-.031-.016-.032-.026l-.041-.888c0-.034.024-.1.051-.1a1.593,1.593,0,0,0-.215.008c.027,0,.053.062.055.1l.04.886c0,.009-.015.02-.024.024a.573.573,0,0,0-.089.038.044.044,0,0,1-.041,0l-.539-.7c-.021-.026-.041-.094-.019-.111a1.77,1.77,0,0,0-.173.15c.02-.018.085.005.107.032l.537.695c.007.006,0,.025-.006.033a.776.776,0,0,0-.051.085c0,.01-.023.025-.033.023l-.829-.233c-.031-.01-.084-.057-.077-.084a1.937,1.937,0,0,0-.063.222c.006-.027.079-.038.112-.03l.827.235c.009,0,.014.02.014.031a.926.926,0,0,0,.01.114c0,.01-.007.02-.017.024l-.789.358c-.031.013-.1.014-.111-.012a1.875,1.875,0,0,0,.081.206c-.011-.026.041-.076.071-.09l.792-.34c.009,0,.023.006.03.015a.651.651,0,0,0,.055.063c.008.008.016.031.011.041l-.473.743c-.018.028-.077.064-.1.049a1.8,1.8,0,0,0,.188.129c-.023-.015-.014-.088,0-.116l.474-.74c0-.009.023-.009.033,0a.7.7,0,0,0,.094.023c.011,0,.03.015.031.026l.041.889c0,.034-.026.1-.053.1a1.631,1.631,0,0,0,.215-.012c-.027,0-.05-.061-.053-.095l-.04-.887c0-.009.015-.02.025-.023a.83.83,0,0,0,.1-.045.047.047,0,0,1,.04,0l.564.674c.021.026.044.09.024.109a1.8,1.8,0,0,0,.163-.144c-.02.019-.081-.014-.1-.038" transform="translate(-804.367 -1992.019)" fill="#fff"/>
    <path id="Path_152" data-name="Path 152" d="M520.225,285.52a7.489,7.489,0,0,1,2.055.227c.06.018.08.06,0,.082a8.9,8.9,0,0,1-2.047.225,11.642,11.642,0,0,1-2.056-.113c-.077-.015-.059-.06,0-.083a7.408,7.408,0,0,1,2.043-.339l0-.137a8.031,8.031,0,0,0-2.467.494c-.076.028-.077.074.022.1a9.536,9.536,0,0,0,2.462.195,10.406,10.406,0,0,0,2.45-.325c.1-.028.095-.073.018-.1a8.024,8.024,0,0,0-2.485-.363Z" transform="translate(-788.205 -1991.93)" fill="#fff"/>
    <path id="Path_153" data-name="Path 153" d="M531.634,274.9a2.658,2.658,0,0,1-.736.191c-.117,0-.844-.03-1.332-.011-.667.024-.714.135-.755.071a3.9,3.9,0,0,0-.474-.817,7.532,7.532,0,0,1-3.9-.393l.016-.174a.66.66,0,0,0,.189.014c-.189-.282-.546-.39-.736-.716-.116-.1-.158-.27-.263-.335.021.314-.22.564-.253.823a1.43,1.43,0,0,0,.484.039.229.229,0,0,1,.3.065,1.117,1.117,0,0,0,.277.11l-.016.174a3.114,3.114,0,0,1-.288-.129.324.324,0,0,1-.313-.031,1.26,1.26,0,0,0-.433-.042,1.238,1.238,0,0,0-.971.481.6.6,0,0,0,.024.528,2.19,2.19,0,0,0,.505.609l-.238.043c-.345-.306-.6-.6-.528-1,.148-.828.9-.7,1.088-1.06a2.492,2.492,0,0,0,.035-1.544c-.462-.217-1.083-.478-1.208-1.074-.011-.151.031-.325.189-.357.253-.044.421.109.621.2.105-.065-.065-.257.116-.271.253-.019.432.524.52.569l-.017.189a8.817,8.817,0,0,1-.882-.443c-.1-.043-.257-.122-.337-.021-.107.136.032.336.126.465,1.346,1.442,3.575-.1,5.058.944a.172.172,0,0,0-.074-.157c-1.009-.944-2.618-.463-3.891-.789l.017-.189c1.6.4,3.747-.271,4.58,1.6.54.826,1.114,2.1,2.3,2.117a2.147,2.147,0,0,0,2.048-1.076c.6-1.168,1-2.55,2.115-3.338.111-.068.165,0,.118.042a6.219,6.219,0,0,0-1.3,1.922c.446,1.679,1.386,1.342,1.61,1.3-.039-.634.013-2.475,1.306-2.9a2.535,2.535,0,0,1,2.669-.336,6.956,6.956,0,0,0-1.817,3.363l-1.111.3a1.57,1.57,0,0,0,.048-.786,4.6,4.6,0,0,1-.506.3c-.1.027,0-.138-.006-.153,0-.041.293-.165.5-.319a2.613,2.613,0,0,1,.424-2.139c-1.135.406-.825,2.81-.7,3.128a2.58,2.58,0,0,1-.753.149l-.045-.424c-.492.17-1.342.058-1.707-1.293-.419.869-.762,2.236-1.693,2.587" transform="translate(-791.087 -1981.856)" fill="#fff"/>
    <path id="Path_154" data-name="Path 154" d="M599.855,273.458a.259.259,0,0,0-.133-.08c-.026-.006-.015-.044.018-.071s.1.016.129.092c.01.026.015.077-.014.059" transform="translate(-841.784 -1984.034)" fill="#fff"/>
    <path id="Path_155" data-name="Path 155" d="M522.406,286.38l.621.7c.064.078.061.171.037.191a1.233,1.233,0,0,0,.241-.223.166.166,0,0,1-.182-.048l-.622-.712a.025.025,0,0,1,0-.033.471.471,0,0,0,.041-.061.022.022,0,0,1,.029-.009l.885.325c.093.037.116.115.105.145a1.316,1.316,0,0,0,.111-.315.156.156,0,0,1-.176.05l-.88-.326a.026.026,0,0,1-.018-.027.456.456,0,0,0,.007-.076.026.026,0,0,1,.022-.023l.927-.15c.1-.014.164.04.164.072a1.2,1.2,0,0,0-.049-.331c.009.036-.053.114-.138.131l-.921.149a.023.023,0,0,1-.027-.016.487.487,0,0,0-.04-.093.027.027,0,0,1,.005-.032l.71-.625a.149.149,0,0,1,.184-.025,1.4,1.4,0,0,0-.217-.261.188.188,0,0,1-.051.192l-.706.618a.02.02,0,0,1-.029,0,.388.388,0,0,0-.07-.052.02.02,0,0,1-.009-.029l.311-.905c.036-.1.121-.128.15-.117a1.3,1.3,0,0,0-.315-.119.2.2,0,0,1,.05.2l-.314.9a.021.021,0,0,1-.025.016.422.422,0,0,0-.086-.008.024.024,0,0,1-.023-.023l-.17-.943a.161.161,0,0,1,.068-.177,1.263,1.263,0,0,0-.319.059c.03-.006.109.057.128.144l.168.938a.024.024,0,0,1-.013.03.532.532,0,0,0-.091.045.023.023,0,0,1-.031-.006l-.626-.705a.166.166,0,0,1-.033-.189,1.254,1.254,0,0,0-.241.223.169.169,0,0,1,.184.047l.62.711a.027.027,0,0,1,0,.034.286.286,0,0,0-.04.061.023.023,0,0,1-.03.009l-.872-.32c-.093-.036-.13-.119-.119-.148a1.254,1.254,0,0,0-.11.314.172.172,0,0,1,.185-.046l.87.322a.028.028,0,0,1,.018.027.549.549,0,0,0-.009.089.025.025,0,0,1-.02.023l-.91.174a.153.153,0,0,1-.173-.07,1.339,1.339,0,0,0,.056.329c-.006-.032.055-.115.14-.135l.907-.171a.024.024,0,0,1,.028.014.315.315,0,0,0,.028.069.026.026,0,0,1-.006.031l-.723.6c-.08.062-.163.047-.182.022a1.27,1.27,0,0,0,.2.262.187.187,0,0,1,.06-.184l.72-.593a.02.02,0,0,1,.03,0,.456.456,0,0,0,.081.061.021.021,0,0,1,.009.029l-.312.9c-.036.1-.113.134-.142.123a1.229,1.229,0,0,0,.3.113.174.174,0,0,1-.049-.184l.316-.9a.021.021,0,0,1,.025-.017.447.447,0,0,0,.086.008.023.023,0,0,1,.023.022l.17.94a.165.165,0,0,1-.067.18,1.275,1.275,0,0,0,.319-.059c-.03.006-.11-.057-.128-.144l-.168-.937a.024.024,0,0,1,.012-.03.552.552,0,0,0,.092-.044.022.022,0,0,1,.03.006" transform="translate(-790.064 -1991.232)" fill="#fff"/>
    <path id="Path_156" data-name="Path 156" d="M594.533,272.095c-.022-.02-.015-.059,0-.095a1.235,1.235,0,0,0,.069-.157c-.153-.124-.182-.353-.1-.423.087-.1.373.017.38.007.245-.194.332-.347.465-.424a.855.855,0,0,1,.625.613,6.52,6.52,0,0,1-.431.524c.08.2.087.364-.071.475a.167.167,0,0,1-.133-.036c.031.266.354.457.446.7.019.466.5,1.071-.047,1.445a.831.831,0,0,0-.286.27c.105.492.271.99.333,1.47l-.522.049c-.072.183-.249.48-.176.673.006.013-.018-.016.034.014a4.486,4.486,0,0,1,.077,1.17c-.017.131.1.124.024.339a.585.585,0,0,0-.3.273c-.158.139-.542.165-.546.106-.01-.167.282-.328.319-.5a3.265,3.265,0,0,0-.356-2c-.15-.061-.265.168-.356.269a4.317,4.317,0,0,1,.38,1.433c-.007.164.156.345.075.551l-.457.229H592.34c-.067-.081-.186-.157-.166-.263h1.5c.008-.07.131-.036.284-.271-.011-.713-.712-1.76-.588-2.123.151-.439.332-.788.555-1.4l.116-.01c-.245.873-.615,1.316-.561,1.6a2.07,2.07,0,0,0,.166.447l.062.178a1.907,1.907,0,0,0,.172.34.531.531,0,0,0,.2-.08.687.687,0,0,0-.149-.355l-.22.095-.062-.178c.16,0,.292-.134.149-.233.379-.185-.086-.132.061-.219a1.184,1.184,0,0,0,.364-.849.078.078,0,0,1,.07-.074,7.739,7.739,0,0,0,.485,1.536l-.009.168a.73.73,0,0,0,.047.335c.274.025.256-.024.184-.362-.056.011-.172-.034-.231.027l.009-.168c.031-.008.138,0,.168-.035a.752.752,0,0,1-.1-.4c0-.115.06-.277.133.114.094.035.225-.67.242-.922-.532.122,0-.547-.4-.563l.214-.344a.179.179,0,0,0-.238-.173l-.112-.153c-.08-.02-.188-.142-.293-.239a1.134,1.134,0,0,0-.266.383c0,.018.085.036.1.02.083-.071.137.086.28.064.058-.067.23-.086.175-.228l.112.153c-.128.088-.123.276-.118.443-.207.377-.112-.216-.332-.221-.143.091-.2-.147-.3-.11l-.116.01a3.465,3.465,0,0,0,0-.659,7.29,7.29,0,0,1,.4-1.292c0-.1.451-.349.416-.479a.364.364,0,0,1,.075.136c-.03.138-.317.137-.3.474.2-.34.68-.287.7-.7-.079-.218.1-.076.124-.315a1.158,1.158,0,0,1-.271-.324c-.011-.031.076-.207-.306-.222-.027.043-.073.216-.128.3-.028.043-.065.107-.057.125a.245.245,0,0,1,.058.2c-.01.1-.007.179.066.217.23.126.39.016.158.168a.3.3,0,0,1-.05.083.593.593,0,0,0-.112-.168c-.045-.018-.174-.105-.137-.224a.209.209,0,0,0-.034-.234" transform="translate(-836.86 -1982.536)" fill="#fff"/>
    <path id="Path_157" data-name="Path 157" d="M575.9,270.946c.038.19-.1.347-.1.551.209.5.025.888.057,1.354-.221-.13-.267-.512-.357-.932a2.577,2.577,0,0,1,.062-.886Z" transform="translate(-825.953 -1982.498)" fill="#fff"/>
    <path id="Path_158" data-name="Path 158" d="M569.382,270.983a2.937,2.937,0,0,0,.312,1.91,25.484,25.484,0,0,1-3.283,1.167,6.254,6.254,0,0,1,1.784-3.244,4.71,4.71,0,0,0,1.187.167" transform="translate(-820.03 -1982.413)" fill="#fff"/>
    <path id="Path_159" data-name="Path 159" d="M548.957,278.828c-.278.069-.269.26-.1.421.106.1.228.236.214.286h-1.836c0,.087.074.12.155.266h10.147c.076-.147-.089-.321-.16-.466-.715-.28-.712-.98-.754-1.75a1.1,1.1,0,0,1-.034-.262,3.863,3.863,0,0,1-.363-2.309l.155-.319c.148-.217-.009-.333.1-.56l2.137-.426c.039-.021.029-.11-.01-.151-.014-.013.017,0,0,0l-2.1.4c.138-.531-.331-.735-.137-1.163a3.932,3.932,0,0,0,1.478.971l.2-.039a4.677,4.677,0,0,1-1.952-1.536.537.537,0,0,1-.18-.064c.011.032.129.223.1.258,0,0-.329.227-.987-.058-.177.422-2.429,1.462-2.429,1.462a2.568,2.568,0,0,0,.685,1.416c.034.042-.07-.072,0,0a3.86,3.86,0,0,0,1.612.691c.128.341.542,1.475.58,1.658s.138.182.138.182a2.093,2.093,0,0,1,.274.617l.05.612c.02.14.2.036.23.154l-.083.414.419,0c-.211-.227-.063-.567-.357-.741a1.3,1.3,0,0,0-.214-.753c-.122-.343-.476-1.3-.728-2.154l.15-.22a2.074,2.074,0,0,1-1.69-.371c-.434-.225-.164-.037-.037-.135a2.249,2.249,0,0,0,1.551.187c.073.1.176.189.176.319l-.15.22c.155-.155.272-.074.373.352.1.344.214.628.3.916.118.29.207.675.3.878a.185.185,0,0,1,.123.123c.221.637.28.739.243,1.043.053.238.377.043.347.337h-7.555c.094-.488-.147-.913-.021-1.346-.273-.488-1.009-.824-.883-1.464.358-.509,1.471-1.006,1.218-1.622,1.012-.528,1.547.354,2.505.288a4.5,4.5,0,0,0,1.012-.15,3.886,3.886,0,0,1-.93-1.277,33.707,33.707,0,0,1-6.139,1.974l-.169-.054a20.392,20.392,0,0,0-3.355.94,9.607,9.607,0,0,0-2.975.808c-.148.092-.174.143,0,.19,1.315.356,2.4.117,4.454-.708l-.153-.108a13.714,13.714,0,0,1-2.445.773,4.192,4.192,0,0,1-1.594-.03c-.075-.023-.057-.049-.012-.067,1.291-.528,3.784-1.012,4.152-.564a1.009,1.009,0,0,1,.459.347c.1.124.347.077.491.038.233-.061.268-.252.266-.471l-.272-.026a2.806,2.806,0,0,0-.625.111,1.241,1.241,0,0,0-.561-.346,6.914,6.914,0,0,1,1.615-.433c-.373.278-.2.6-.429.668l.272.026a.534.534,0,0,1,.051-.274c.272-.639,1.361-.724,1.918-.865a1.834,1.834,0,0,1-.5.443c-.042.933-.389,1.745-.431,2.634.263.011.253.315.315.488-.073.163-.2,0-.315.055-.4-.227.095-.6-.231-.878a9.13,9.13,0,0,0,.42-2.266c-.1.011-.147.13-.189.217a12.785,12.785,0,0,1-.473,2.125c.084.044.231.087.221.217-.252.162.01.425-.094.609h-2.6l-.288.266H547l.039-.15a2.181,2.181,0,0,1-.094-2.287l.684-.954c.567-.227.914-.942,1.514-1.171,0,.3-.368.433-.568.607-.209.51-.872.563-.967,1.127a8.937,8.937,0,0,0,.946.781c.326.207.211.64.474.856a.175.175,0,0,1-.074.217" transform="translate(-802.433 -1983.27)" fill="#fff"/>
    <path id="Path_160" data-name="Path 160" d="M578.057,259.963c-.123.175-.362.3-.218.6a.4.4,0,0,0-.093.6.431.431,0,0,0-.043.618c-.244.271.061.5.13.591a.548.548,0,0,0,0,.479c0,.194-.34.471-.461.561a7.583,7.583,0,0,0-.068,1.981,9.5,9.5,0,0,0,2.246-1.357c-.55-.391-.974-1.3-1.575-1.236a3.751,3.751,0,0,1,.555-3c.115-.055.3-.076.378-.163-.368-.039-.849.194-1.2-.01,0,0,.161.29.348.334" transform="translate(-827.126 -1975.104)" fill="#fff"/>
    <path id="Path_161" data-name="Path 161" d="M581.491,258.753c0,.027.108.113.108.113s.116-.057.117-.084.023-.107,0-.125a.259.259,0,0,0-.164-.036,1.284,1.284,0,0,0-.065.132l-.067.063-.4-.276.063-.069a1.14,1.14,0,0,1,.252-.19,1.462,1.462,0,0,1,.667.094.888.888,0,0,1,.248.354c.324.243.861.251,1.157.51-.042.108.1.228-.028.309-.073.021-.264-.059-.306.027l-.046.159-.121-.012s.076-.215.023-.229-.181-.066-.226-.044-.011.07.008.115a.245.245,0,0,0,.239.068l.105.021.14.052c-.031.115-.078.18-.278.124-.054.143.266.283.3.324-.029.071-.075.136-.291,0a7.229,7.229,0,0,1-1.341,1.073c-.5.237-.013-.107-.013-.107a6.841,6.841,0,0,0,1.246-1.076.745.745,0,0,1-.106-.274.8.8,0,0,0-.524.115,8.228,8.228,0,0,1,.164,3.608l-.062-.056a8.131,8.131,0,0,0-.218-3.5,1.065,1.065,0,0,1-.607.031c-.083,1.221.874,1.415.545,3.01-1.022-.159-1.732-1.456-2.3-1.333-.029-.206-.229-.555-.031-.679a.448.448,0,0,1,.134-.579.416.416,0,0,1,.145-.6.423.423,0,0,1,.293-.551.651.651,0,0,1,.378-.56.575.575,0,0,1-.318-.391.934.934,0,0,0,.773.185Z" transform="translate(-828.64 -1974.218)" fill="#fff"/>
    <path id="Path_162" data-name="Path 162" d="M542.369,306.731h-2.413v-2.156h2.282a1.674,1.674,0,0,1,.761.112,1.052,1.052,0,0,1,.544.982,1.117,1.117,0,0,1-1.173,1.062m2.037,3.7-.031-1.678a1.667,1.667,0,0,0-.737-1.311.783.783,0,0,0-.344-.113.854.854,0,0,0,.377-.059l.014,0a1.854,1.854,0,0,0,.954-1.745,2.023,2.023,0,0,0-.807-1.678,2.58,2.58,0,0,0-1.6-.436h-4.438v1.162h1v5.861h-1v1.157h3.152v-1.157h-.986v-2.582h2.178a.974.974,0,0,1,1.054.955l.056,2.784h2.178v-1.157Z" transform="translate(-801.33 -2003.71)" fill="#fff"/>
    <path id="Path_163" data-name="Path 163" d="M532.986,337.36h.8a.722.722,0,0,0,.822-.734c0-.342-.185-.712-.795-.712h-.832Zm.832-2.05a1.309,1.309,0,0,1,1.485,1.343c0,.734-.493,1.309-1.575,1.309h-.743v2.022h-.671V335.31Z" transform="translate(-797.754 -2024.549)" fill="#fff"/>
    <path id="Path_164" data-name="Path 164" d="M544.677,335.229l-2.006,4.7h.725l.549-1.378h1.985l.569,1.378h.739l-2.089-4.7Zm.226.874.754,1.847h-1.452Z" transform="translate(-804.52 -2024.496)" fill="#fff"/>
    <rect id="Rectangle_16" data-name="Rectangle 16" width="0.671" height="4.674" transform="translate(-250.408 -1689.239)" fill="#fff"/>
    <path id="Path_165" data-name="Path 165" d="M586.352,336.22a1.711,1.711,0,0,0-1.159-.486c-.457,0-.782.226-.782.555,0,.9,2.137.884,2.137,2.371a1.289,1.289,0,0,1-1.384,1.268,2.257,2.257,0,0,1-1.384-.432v-.849a1.7,1.7,0,0,0,1.3.678c.551,0,.8-.329.8-.589,0-.966-2.137-1.076-2.137-2.358,0-.761.594-1.248,1.5-1.248a2.054,2.054,0,0,1,1.1.33Z" transform="translate(-831.359 -2024.432)" fill="#fff"/>
    <path id="Path_166" data-name="Path 166" d="M561.213,337.351h-.441v-1.466h.441c.662,0,.928.267.936.706.006.39-.2.761-.936.761m2.16,2.09c-.086-.123-.161-.235-.254-.383a3.831,3.831,0,0,0-1.061-1.3,1.169,1.169,0,0,0,.8-1.145c0-.808-.6-1.309-1.563-1.309h-1.2v4.675h.684v-2.029h.286c.35,0,.636.11,1.263,1.069l.6.96h.8Z" transform="translate(-815.899 -2024.548)" fill="#fff"/>
  </g>
</svg>
