<svg xmlns="http://www.w3.org/2000/svg" width="53.008" height="13.155" viewBox="0 0 53.008 13.155">
  <g id="Group_95" data-name="Group 95" transform="translate(-1064.992 -1776)">
    <g id="Group_93" data-name="Group 93" transform="translate(-0.876 1.378)">
      <path id="Path_404" data-name="Path 404" d="M943.021,1968.236c0,.581,0,2.887.058,3.39a.35.35,0,0,1-.368.213c-.232-.33-.794-1.008-2.48-2.926l-4.495-5.115c-.523-.6-1.84-2.189-2.247-2.615h-.039a4.92,4.92,0,0,0-.1,1.259v4.223a15.165,15.165,0,0,0,.349,4.01c.116.213.5.329.988.368l.6.058a.355.355,0,0,1-.039.484c-.872-.039-1.55-.058-2.267-.058-.814,0-1.337.019-2.015.058a.359.359,0,0,1-.039-.484l.523-.058c.446-.058.755-.174.852-.387a18.7,18.7,0,0,0,.252-3.991v-5.6a1.777,1.777,0,0,0-.426-1.4,2.1,2.1,0,0,0-1.2-.465l-.329-.039a.34.34,0,0,1,.039-.484c.814.058,1.84.058,2.189.058a6.248,6.248,0,0,0,.891-.058,26.656,26.656,0,0,0,3.313,4.262l1.879,2.112c1.337,1.492,2.286,2.577,3.2,3.507h.038a1.945,1.945,0,0,0,.078-.814v-4.146c0-.911-.019-3.429-.388-4.01-.116-.174-.426-.291-1.2-.387l-.329-.039c-.136-.116-.116-.426.038-.484.892.039,1.55.058,2.286.058.833,0,1.337-.019,2-.058a.34.34,0,0,1,.039.484l-.271.039c-.62.1-1.008.252-1.085.407a15.634,15.634,0,0,0-.291,3.991Z" transform="translate(135.348 -184.063)" fill="#fff"/>
      <path id="Path_405" data-name="Path 405" d="M975.327,1975.91c-.5,0-.523.039-.523.523,0,1.957,1.143,3.623,3.216,3.623a2.088,2.088,0,0,0,1.782-.95.256.256,0,0,1,.349.232,3.386,3.386,0,0,1-3.042,1.8,3.472,3.472,0,0,1-2.809-1.279,4.113,4.113,0,0,1-.814-2.519c0-2.383,1.569-4.378,3.894-4.378a2.538,2.538,0,0,1,2.751,2.306,1.2,1.2,0,0,1-.077.5c-.058.116-.329.136-1.143.136Zm1.2-.581c1.434,0,1.86-.078,2.015-.194.058-.039.116-.116.116-.368,0-.542-.368-1.221-1.492-1.221a2.274,2.274,0,0,0-2.151,1.686c0,.039,0,.1.136.1Z" transform="translate(107.246 -193.403)" fill="#fff"/>
      <path id="Path_406" data-name="Path 406" d="M995.535,1974.957a1.722,1.722,0,0,0-1.162-.833l-.31-.058c-.116-.1-.1-.426.038-.484.756.039,1.2.058,1.686.058.465,0,.891-.019,1.647-.058a.358.358,0,0,1,.019.484l-.291.058c-.523.1-.5.213-.174.678l.93,1.356a2.855,2.855,0,0,0,.252.329c.078-.058.717-1.027,1.124-1.647.329-.5.271-.6-.155-.717l-.233-.058a.341.341,0,0,1,.078-.484c.446.039.949.058,1.414.058.446,0,1.046-.019,1.414-.058a.34.34,0,0,1,.039.484l-.291.058a2.232,2.232,0,0,0-.969.329,17.362,17.362,0,0,0-1.821,2.208c-.232.31-.232.368.019.717l1.8,2.538c.446.62.755.871,1.279.911l.31.019c.116.116.1.427-.039.485q-1.076-.058-1.918-.058c-.717,0-1.221.019-1.841.058a.326.326,0,0,1-.058-.485l.562-.058c.562-.058.581-.232.329-.581l-1.007-1.453a2.809,2.809,0,0,0-.426-.562,3.465,3.465,0,0,0-.349.465l-.814,1.279c-.388.62-.426.775.058.852l.329.058c.116.1.1.427-.039.485-.484-.039-.969-.058-1.434-.058-.484,0-.911.019-1.414.058a.326.326,0,0,1-.039-.485l.446-.077a1.634,1.634,0,0,0,.969-.581c.407-.426,1.279-1.724,1.724-2.267.174-.213.213-.291.058-.5Z" transform="translate(93.838 -193.806)" fill="#fff"/>
      <path id="Path_407" data-name="Path 407" d="M1022.5,1971.993c-.329,0-.349.058-.349.465v3.623c0,1.123.136,2.151,1.414,2.151a1.48,1.48,0,0,0,.523-.1c.174-.058.426-.271.484-.271.155,0,.232.213.194.329a2.682,2.682,0,0,1-2.034.891c-1.666,0-2.015-.93-2.015-2.092v-4.437c0-.523-.019-.562-.407-.562h-.542a.322.322,0,0,1-.058-.407,3.849,3.849,0,0,0,1.24-.6,4.8,4.8,0,0,0,.814-1.143c.1-.039.329-.039.407.1v.872c0,.349.019.368.349.368h2.15a.619.619,0,0,1,.02.814Z" transform="translate(77.044 -191.346)" fill="#fff"/>
    </g>
    <path id="Path_408" data-name="Path 408" d="M1062.132,1978.813l-.7-.731,3.6-3.769-3.6-3.77.7-.731,4.3,4.5Z" transform="translate(51.566 -191.813)" fill="#fff"/>
  </g>
</svg>
