<svg xmlns="http://www.w3.org/2000/svg" width="77.342" height="13.31" viewBox="0 0 77.342 13.31">
  <g id="Group_94" data-name="Group 94" transform="translate(-760 -1776)">
    <g id="Group_92" data-name="Group 92" transform="translate(0.507 -0.552)">
      <path id="Path_395" data-name="Path 395" d="M97.984,1968.624c0,2.035.039,2.286,1.279,2.422l.523.058a.379.379,0,0,1-.039.484c-1.1-.039-1.743-.058-2.519-.058-.814,0-1.511.019-2.364.058a.376.376,0,0,1-.039-.484l.407-.058c1.124-.155,1.162-.387,1.162-2.422v-7.149c0-1.646-.039-1.976-.911-2.073l-.7-.078a.323.323,0,0,1,.039-.484,30.533,30.533,0,0,1,3.836-.155,7,7,0,0,1,3.72.775,3.347,3.347,0,0,1,1.55,2.906,3.283,3.283,0,0,1-1.937,3.08,6.534,6.534,0,0,1-2.674.582c-.136-.058-.136-.349-.019-.388,2.092-.387,2.848-1.569,2.848-3.254a2.857,2.857,0,0,0-3.119-3.1c-1.026,0-1.046.077-1.046.7Z" transform="translate(681.797 -182.133)" fill="#fff"/>
      <path id="Path_396" data-name="Path 396" d="M124.744,1974.8c0-.755,0-.852-.523-1.2l-.174-.116a.265.265,0,0,1,.02-.349,14.98,14.98,0,0,0,1.956-.949c.1.019.155.058.155.136v1.124c0,.1.019.155.058.174a3.912,3.912,0,0,1,2.131-1.162.8.8,0,0,1,.871.775.859.859,0,0,1-.833.891.743.743,0,0,1-.426-.136,1.589,1.589,0,0,0-.852-.31.859.859,0,0,0-.7.387,2.946,2.946,0,0,0-.252,1.492v2.635c0,1.395.039,1.627.775,1.685l.7.058a.339.339,0,0,1-.038.485c-.911-.039-1.473-.058-2.151-.058-.7,0-1.278.019-1.782.058a.339.339,0,0,1-.039-.485l.368-.058c.716-.116.736-.29.736-1.685Z" transform="translate(662.922 -190.96)" fill="#fff"/>
      <path id="Path_397" data-name="Path 397" d="M142.719,1975.91c-.5,0-.523.039-.523.523,0,1.957,1.143,3.623,3.216,3.623a2.088,2.088,0,0,0,1.782-.95.256.256,0,0,1,.349.232,3.386,3.386,0,0,1-3.042,1.8,3.472,3.472,0,0,1-2.809-1.279,4.113,4.113,0,0,1-.814-2.519c0-2.383,1.569-4.378,3.894-4.378a2.538,2.538,0,0,1,2.751,2.306,1.2,1.2,0,0,1-.077.5c-.058.116-.329.136-1.143.136Zm1.2-.581c1.434,0,1.86-.078,2.015-.194.058-.039.116-.116.116-.368,0-.542-.368-1.221-1.492-1.221a2.274,2.274,0,0,0-2.15,1.686c0,.039,0,.1.136.1Z" transform="translate(651.592 -191.472)" fill="#fff"/>
      <path id="Path_398" data-name="Path 398" d="M162.671,1975.557c-.291-.717-.465-1.337-1.162-1.434l-.387-.058c-.116-.155-.1-.426.058-.484.484.039,1.162.058,1.821.058.523,0,.911-.019,1.569-.058a.339.339,0,0,1,.019.484l-.232.039c-.6.1-.62.194-.426.775.445,1.337,1.007,2.693,1.453,3.7a3.192,3.192,0,0,0,.31.62,2.36,2.36,0,0,0,.368-.736c.252-.659.911-2.344,1.1-2.848a4.364,4.364,0,0,0,.349-1.2c0-.174-.116-.252-.349-.291l-.446-.058a.355.355,0,0,1,.039-.484q.9.058,1.453.058c.484,0,.813-.019,1.356-.058a.357.357,0,0,1,.038.484l-.291.039c-.678.1-.852.6-1.414,1.685-.271.523-1.472,3.332-1.782,4.127-.194.484-.387.93-.639,1.589a.225.225,0,0,1-.193.078.358.358,0,0,1-.252-.078c-.155-.542-.446-1.3-.736-2.015Z" transform="translate(638.401 -191.875)" fill="#fff"/>
      <path id="Path_399" data-name="Path 399" d="M188.509,1967.4c0-.756,0-.853-.523-1.2l-.174-.116a.265.265,0,0,1,.02-.349,13.3,13.3,0,0,0,2-.949.18.18,0,0,1,.194.116c-.039.678-.078,1.608-.078,2.4v3.487c0,1.395.039,1.589.736,1.685l.407.058a.339.339,0,0,1-.039.485c-.581-.039-1.143-.058-1.821-.058-.7,0-1.278.019-1.821.058a.34.34,0,0,1-.039-.485l.407-.058c.716-.1.736-.29.736-1.685Zm1.608-5.521a1.008,1.008,0,0,1-2.015.039,1.007,1.007,0,0,1,1.046-1.046.968.968,0,0,1,.969,1.007" transform="translate(621.242 -183.561)" fill="#fff"/>
      <path id="Path_400" data-name="Path 400" d="M208.352,1976.975a3.957,3.957,0,0,1-4.088,4.165,3.83,3.83,0,0,1-3.972-3.991,4.071,4.071,0,0,1,4.127-4.185,3.87,3.87,0,0,1,3.933,4.01m-4.165-3.429c-1.279,0-2.228,1.221-2.228,3.352,0,1.763.794,3.661,2.5,3.661s2.228-1.782,2.228-3.274c0-1.647-.659-3.739-2.5-3.739" transform="translate(612.732 -191.472)" fill="#fff"/>
      <path id="Path_401" data-name="Path 401" d="M228.492,1978.022c0,1.337.329,2.228,1.8,2.228a2.534,2.534,0,0,0,1.569-.581,1.348,1.348,0,0,0,.387-1.124v-3.177c0-1.26-.135-1.3-.716-1.531l-.252-.1a.264.264,0,0,1,.02-.426,7.764,7.764,0,0,0,2.267-.349c.1.019.155.058.174.135-.039.368-.058.969-.058,1.686v3.255c0,1.531.058,2.111.6,2.111a3.669,3.669,0,0,0,.756-.1c.116.1.135.484-.019.562a10.068,10.068,0,0,0-2.538.717.27.27,0,0,1-.232-.135v-.795c0-.174-.058-.271-.174-.271a5.062,5.062,0,0,1-2.673,1.008c-1.7,0-2.345-.852-2.345-2.422v-3.235c0-1.221,0-1.4-.581-1.647l-.232-.1a.288.288,0,0,1,.038-.426,6.866,6.866,0,0,0,2.073-.349c.116.019.174.058.194.135a14.611,14.611,0,0,0-.058,1.686Z" transform="translate(595.809 -191.473)" fill="#fff"/>
      <path id="Path_402" data-name="Path 402" d="M259.1,1973.314a4.525,4.525,0,0,1,.31,1.569.337.337,0,0,1-.465.058,1.889,1.889,0,0,0-1.7-1.414,1.145,1.145,0,0,0-1.24,1.182c0,.794.814,1.221,1.492,1.608,1.026.581,1.976,1.24,1.976,2.615,0,1.472-1.356,2.208-2.79,2.208a3.223,3.223,0,0,1-2.073-.582,5.775,5.775,0,0,1-.232-1.956.329.329,0,0,1,.446-.02c.329,1.066.949,2,2.054,2a1.193,1.193,0,0,0,1.3-1.24c0-.891-.775-1.376-1.492-1.782-1.124-.639-1.918-1.318-1.918-2.383,0-1.414,1.162-2.209,2.635-2.209a3.427,3.427,0,0,1,1.7.349" transform="translate(577.366 -191.472)" fill="#fff"/>
    </g>
    <path id="Path_403" data-name="Path 403" d="M57.869,1978.814l-4.3-4.5,4.3-4.5.7.731-3.6,3.769,3.6,3.77Z" transform="translate(706.433 -191.814)" fill="#fff"/>
  </g>
</svg>
